<svg width="1500" height="500" viewBox="0 0 1500 500" fill="none" xmlns="http://www.w3.org/2000/svg">
<rect width="1500" height="500" fill="#EBFBE7"/>
<path d="M250.179 307.283C251.694 301.224 260.306 301.224 261.821 307.283L289.136 416.545C290.083 420.332 287.219 424 283.315 424H228.685C224.781 424 221.917 420.332 222.864 416.545L250.179 307.283Z" fill="#1C1B1B"/>
<path fill-rule="evenodd" clip-rule="evenodd" d="M260.836 78.3771C258.603 74.0354 252.397 74.0354 250.164 78.3771L167.496 239.146C165.443 243.139 168.342 247.89 172.832 247.89H208.933L149.462 364.266C147.421 368.258 150.321 372.996 154.804 372.996H356.196C360.679 372.996 363.579 368.258 361.539 364.266L302.067 247.89H338.168C342.658 247.89 345.557 243.139 343.504 239.146L260.836 78.3771Z" fill="#1C1B1B"/>
<path d="M544.12 276.2C537.32 276.2 531.48 275.04 526.6 272.72C521.8 270.4 517.44 266.92 513.52 262.28L524.32 251.48C526.8 254.76 529.68 257.32 532.96 259.16C536.24 260.92 540.24 261.8 544.96 261.8C549.2 261.8 552.56 260.96 555.04 259.28C557.6 257.6 558.88 255.28 558.88 252.32C558.88 249.76 558.16 247.68 556.72 246.08C555.28 244.48 553.36 243.12 550.96 242C548.64 240.88 546.04 239.88 543.16 239C540.36 238.04 537.52 236.96 534.64 235.76C531.84 234.56 529.24 233.08 526.84 231.32C524.52 229.48 522.64 227.16 521.2 224.36C519.76 221.48 519.04 217.88 519.04 213.56C519.04 208.44 520.28 204.08 522.76 200.48C525.24 196.88 528.64 194.12 532.96 192.2C537.28 190.28 542.16 189.32 547.6 189.32C553.36 189.32 558.56 190.4 563.2 192.56C567.84 194.72 571.64 197.52 574.6 200.96L563.8 211.76C561.32 209.04 558.76 207.04 556.12 205.76C553.56 204.48 550.64 203.84 547.36 203.84C543.6 203.84 540.64 204.56 538.48 206C536.32 207.44 535.24 209.52 535.24 212.24C535.24 214.56 535.96 216.44 537.4 217.88C538.84 219.32 540.72 220.56 543.04 221.6C545.44 222.64 548.04 223.64 550.84 224.6C553.72 225.56 556.56 226.64 559.36 227.84C562.24 229.04 564.84 230.6 567.16 232.52C569.56 234.44 571.48 236.92 572.92 239.96C574.36 242.92 575.08 246.6 575.08 251C575.08 258.84 572.32 265 566.8 269.48C561.28 273.96 553.72 276.2 544.12 276.2ZM618.44 276.2C614.28 276.2 610.52 275.36 607.16 273.68C603.8 271.92 601.12 269.56 599.12 266.6C597.12 263.64 596.04 260.24 595.88 256.4V235.88C596.04 232.04 597.12 228.64 599.12 225.68C601.2 222.64 603.88 220.24 607.16 218.48C610.52 216.72 614.28 215.84 618.44 215.84C623.8 215.84 628.6 217.16 632.84 219.8C637.08 222.44 640.4 226.04 642.8 230.6C645.28 235.16 646.52 240.32 646.52 246.08C646.52 251.76 645.28 256.88 642.8 261.44C640.4 266 637.08 269.6 632.84 272.24C628.6 274.88 623.8 276.2 618.44 276.2ZM615.68 261.68C618.56 261.68 621.12 261.04 623.36 259.76C625.6 258.4 627.32 256.56 628.52 254.24C629.8 251.84 630.44 249.08 630.44 245.96C630.44 242.92 629.8 240.24 628.52 237.92C627.32 235.52 625.6 233.68 623.36 232.4C621.12 231.04 618.56 230.36 615.68 230.36C612.88 230.36 610.36 231.04 608.12 232.4C605.88 233.68 604.12 235.52 602.84 237.92C601.64 240.24 601.04 242.92 601.04 245.96C601.04 249.08 601.64 251.84 602.84 254.24C604.12 256.56 605.84 258.4 608 259.76C610.24 261.04 612.8 261.68 615.68 261.68ZM586.28 299.24V217.04H602V232.28L599.36 246.32L601.88 260.36V299.24H586.28ZM656.827 275V217.04H672.547V275H656.827ZM672.547 242.96L666.427 238.88C667.147 231.76 669.227 226.16 672.667 222.08C676.107 217.92 681.067 215.84 687.547 215.84C690.347 215.84 692.867 216.32 695.107 217.28C697.347 218.16 699.387 219.64 701.227 221.72L691.387 233C690.507 232.04 689.427 231.32 688.147 230.84C686.947 230.36 685.547 230.12 683.947 230.12C680.587 230.12 677.827 231.2 675.667 233.36C673.587 235.44 672.547 238.64 672.547 242.96ZM731.469 276.2C726.349 276.2 721.789 275.12 717.789 272.96C713.869 270.8 710.789 267.8 708.549 263.96C706.309 260.12 705.189 255.68 705.189 250.64V217.04H721.029V250.28C721.029 252.68 721.429 254.76 722.229 256.52C723.029 258.2 724.229 259.48 725.829 260.36C727.429 261.24 729.309 261.68 731.469 261.68C734.749 261.68 737.309 260.68 739.149 258.68C740.989 256.68 741.909 253.88 741.909 250.28V217.04H757.629V250.64C757.629 255.76 756.509 260.24 754.269 264.08C752.109 267.92 749.029 270.92 745.029 273.08C741.109 275.16 736.589 276.2 731.469 276.2ZM797.508 276.2C791.588 276.2 786.268 274.88 781.548 272.24C776.828 269.6 773.108 266 770.388 261.44C767.668 256.88 766.308 251.76 766.308 246.08C766.308 240.32 767.668 235.16 770.388 230.6C773.108 226.04 776.828 222.44 781.548 219.8C786.348 217.08 791.668 215.72 797.508 215.72C802.068 215.72 806.268 216.56 810.108 218.24C813.948 219.92 817.268 222.32 820.068 225.44L809.988 235.64C808.468 233.96 806.628 232.68 804.468 231.8C802.388 230.92 800.068 230.48 797.508 230.48C794.628 230.48 792.028 231.16 789.708 232.52C787.468 233.8 785.668 235.6 784.308 237.92C783.028 240.16 782.388 242.84 782.388 245.96C782.388 249 783.028 251.72 784.308 254.12C785.668 256.44 787.468 258.28 789.708 259.64C792.028 260.92 794.628 261.56 797.508 261.56C800.148 261.56 802.508 261.12 804.588 260.24C806.748 259.28 808.588 257.92 810.108 256.16L820.308 266.36C817.348 269.56 813.948 272 810.108 273.68C806.268 275.36 802.068 276.2 797.508 276.2ZM855.641 276.2C849.561 276.2 844.161 274.92 839.441 272.36C834.721 269.72 830.961 266.12 828.161 261.56C825.441 257 824.081 251.8 824.081 245.96C824.081 240.2 825.401 235.08 828.041 230.6C830.761 226.04 834.441 222.44 839.081 219.8C843.721 217.08 848.881 215.72 854.561 215.72C860.161 215.72 865.081 217 869.321 219.56C873.641 222.04 877.001 225.48 879.401 229.88C881.881 234.2 883.121 239.12 883.121 244.64C883.121 245.68 883.041 246.76 882.881 247.88C882.801 248.92 882.601 250.12 882.281 251.48L833.561 251.6V239.84L874.961 239.72L868.601 244.64C868.441 241.2 867.801 238.32 866.681 236C865.641 233.68 864.081 231.92 862.001 230.72C860.001 229.44 857.521 228.8 854.561 228.8C851.441 228.8 848.721 229.52 846.401 230.96C844.081 232.32 842.281 234.28 841.001 236.84C839.801 239.32 839.201 242.28 839.201 245.72C839.201 249.24 839.841 252.32 841.121 254.96C842.481 257.52 844.401 259.52 846.881 260.96C849.361 262.32 852.241 263 855.521 263C858.481 263 861.161 262.52 863.561 261.56C865.961 260.52 868.041 259 869.801 257L879.041 266.24C876.241 269.52 872.801 272 868.721 273.68C864.721 275.36 860.361 276.2 855.641 276.2ZM917.96 275V190.64H934.28V275H917.96ZM929.96 275V260.48H972.92V275H929.96ZM1008.68 276.2C1002.84 276.2 997.557 274.88 992.837 272.24C988.197 269.52 984.477 265.88 981.677 261.32C978.957 256.68 977.597 251.52 977.597 245.84C977.597 240.16 978.957 235.08 981.677 230.6C984.397 226.04 988.117 222.44 992.837 219.8C997.557 217.08 1002.8 215.72 1008.56 215.72C1014.48 215.72 1019.76 217.08 1024.4 219.8C1029.12 222.44 1032.84 226.04 1035.56 230.6C1038.28 235.08 1039.64 240.16 1039.64 245.84C1039.64 251.52 1038.28 256.68 1035.56 261.32C1032.84 265.88 1029.12 269.52 1024.4 272.24C1019.76 274.88 1014.52 276.2 1008.68 276.2ZM1008.56 261.56C1011.52 261.56 1014.12 260.92 1016.36 259.64C1018.68 258.28 1020.44 256.44 1021.64 254.12C1022.92 251.72 1023.56 249 1023.56 245.96C1023.56 242.92 1022.92 240.24 1021.64 237.92C1020.36 235.6 1018.6 233.8 1016.36 232.52C1014.12 231.16 1011.52 230.48 1008.56 230.48C1005.68 230.48 1003.12 231.16 1000.88 232.52C998.637 233.8 996.877 235.6 995.597 237.92C994.317 240.24 993.677 242.92 993.677 245.96C993.677 249 994.317 251.72 995.597 254.12C996.877 256.44 998.637 258.28 1000.88 259.64C1003.12 260.92 1005.68 261.56 1008.56 261.56ZM1074 276.2C1068.72 276.2 1063.96 274.88 1059.72 272.24C1055.48 269.6 1052.16 266 1049.76 261.44C1047.36 256.88 1046.16 251.76 1046.16 246.08C1046.16 240.32 1047.36 235.16 1049.76 230.6C1052.16 226.04 1055.48 222.44 1059.72 219.8C1063.96 217.16 1068.72 215.84 1074 215.84C1078.16 215.84 1081.88 216.68 1085.16 218.36C1088.44 220.04 1091.04 222.4 1092.96 225.44C1094.96 228.4 1096.04 231.76 1096.2 235.52V256.4C1096.04 260.24 1094.96 263.64 1092.96 266.6C1091.04 269.56 1088.44 271.92 1085.16 273.68C1081.88 275.36 1078.16 276.2 1074 276.2ZM1076.88 261.68C1081.28 261.68 1084.84 260.24 1087.56 257.36C1090.28 254.4 1091.64 250.6 1091.64 245.96C1091.64 242.92 1091 240.24 1089.72 237.92C1088.52 235.52 1086.8 233.68 1084.56 232.4C1082.4 231.04 1079.84 230.36 1076.88 230.36C1074 230.36 1071.44 231.04 1069.2 232.4C1067.04 233.68 1065.32 235.52 1064.04 237.92C1062.84 240.24 1062.24 242.92 1062.24 245.96C1062.24 249.08 1062.84 251.84 1064.04 254.24C1065.32 256.56 1067.04 258.4 1069.2 259.76C1071.44 261.04 1074 261.68 1076.88 261.68ZM1090.8 275V259.4L1093.32 245.24L1090.8 231.32V217.04H1106.4V275H1090.8ZM1144.78 276.2C1139.42 276.2 1134.62 274.88 1130.38 272.24C1126.14 269.6 1122.78 266 1120.3 261.44C1117.9 256.88 1116.7 251.76 1116.7 246.08C1116.7 240.32 1117.9 235.16 1120.3 230.6C1122.78 226.04 1126.1 222.44 1130.26 219.8C1134.5 217.16 1139.34 215.84 1144.78 215.84C1148.94 215.84 1152.66 216.68 1155.94 218.36C1159.3 220.04 1161.98 222.4 1163.98 225.44C1166.06 228.4 1167.18 231.76 1167.34 235.52V256.16C1167.18 259.92 1166.1 263.32 1164.1 266.36C1162.1 269.4 1159.42 271.8 1156.06 273.56C1152.7 275.32 1148.94 276.2 1144.78 276.2ZM1147.42 261.68C1150.38 261.68 1152.94 261.04 1155.1 259.76C1157.34 258.4 1159.06 256.56 1160.26 254.24C1161.54 251.84 1162.18 249.08 1162.18 245.96C1162.18 242.92 1161.54 240.24 1160.26 237.92C1159.06 235.52 1157.34 233.68 1155.1 232.4C1152.94 231.04 1150.42 230.36 1147.54 230.36C1144.58 230.36 1141.98 231.04 1139.74 232.4C1137.58 233.76 1135.86 235.6 1134.58 237.92C1133.38 240.24 1132.78 242.92 1132.78 245.96C1132.78 249.08 1133.38 251.84 1134.58 254.24C1135.86 256.56 1137.62 258.4 1139.86 259.76C1142.1 261.04 1144.62 261.68 1147.42 261.68ZM1176.94 275H1161.34V259.4L1163.86 245.24L1161.22 231.32V188.24H1176.94V275ZM1218.57 276.2C1212.49 276.2 1207.09 274.92 1202.37 272.36C1197.65 269.72 1193.89 266.12 1191.09 261.56C1188.37 257 1187.01 251.8 1187.01 245.96C1187.01 240.2 1188.33 235.08 1190.97 230.6C1193.69 226.04 1197.37 222.44 1202.01 219.8C1206.65 217.08 1211.81 215.72 1217.49 215.72C1223.09 215.72 1228.01 217 1232.25 219.56C1236.57 222.04 1239.93 225.48 1242.33 229.88C1244.81 234.2 1246.05 239.12 1246.05 244.64C1246.05 245.68 1245.97 246.76 1245.81 247.88C1245.73 248.92 1245.53 250.12 1245.21 251.48L1196.49 251.6V239.84L1237.89 239.72L1231.53 244.64C1231.37 241.2 1230.73 238.32 1229.61 236C1228.57 233.68 1227.01 231.92 1224.93 230.72C1222.93 229.44 1220.45 228.8 1217.49 228.8C1214.37 228.8 1211.65 229.52 1209.33 230.96C1207.01 232.32 1205.21 234.28 1203.93 236.84C1202.73 239.32 1202.13 242.28 1202.13 245.72C1202.13 249.24 1202.77 252.32 1204.05 254.96C1205.41 257.52 1207.33 259.52 1209.81 260.96C1212.29 262.32 1215.17 263 1218.45 263C1221.41 263 1224.09 262.52 1226.49 261.56C1228.89 260.52 1230.97 259 1232.73 257L1241.97 266.24C1239.17 269.52 1235.73 272 1231.65 273.68C1227.65 275.36 1223.29 276.2 1218.57 276.2ZM1255.77 275V217.04H1271.49V275H1255.77ZM1271.49 242.96L1265.37 238.88C1266.09 231.76 1268.17 226.16 1271.61 222.08C1275.05 217.92 1280.01 215.84 1286.49 215.84C1289.29 215.84 1291.81 216.32 1294.05 217.28C1296.29 218.16 1298.33 219.64 1300.17 221.72L1290.33 233C1289.45 232.04 1288.37 231.32 1287.09 230.84C1285.89 230.36 1284.49 230.12 1282.89 230.12C1279.53 230.12 1276.77 231.2 1274.61 233.36C1272.53 235.44 1271.49 238.64 1271.49 242.96Z" fill="#1C1B1B"/>
<path d="M650.08 319.72L639.16 303.24H643.52L652.32 316.72H650.36L659.2 303.24H663.48L652.48 319.72H650.08ZM649.44 331V317.24H653.2V331H649.44ZM670.023 331.4C668.156 331.4 666.476 330.96 664.983 330.08C663.49 329.2 662.303 328.013 661.423 326.52C660.543 325 660.103 323.307 660.103 321.44C660.103 319.6 660.543 317.947 661.423 316.48C662.303 314.987 663.49 313.8 664.983 312.92C666.476 312.04 668.156 311.6 670.023 311.6C671.863 311.6 673.53 312.04 675.023 312.92C676.543 313.773 677.743 314.947 678.623 316.44C679.503 317.933 679.943 319.6 679.943 321.44C679.943 323.307 679.503 325 678.623 326.52C677.743 328.013 676.543 329.2 675.023 330.08C673.53 330.96 671.863 331.4 670.023 331.4ZM670.023 327.92C671.223 327.92 672.29 327.64 673.223 327.08C674.156 326.52 674.89 325.76 675.423 324.8C675.956 323.813 676.223 322.693 676.223 321.44C676.223 320.213 675.943 319.12 675.383 318.16C674.85 317.2 674.116 316.453 673.183 315.92C672.276 315.36 671.223 315.08 670.023 315.08C668.823 315.08 667.756 315.36 666.823 315.92C665.89 316.453 665.156 317.2 664.623 318.16C664.09 319.12 663.823 320.213 663.823 321.44C663.823 322.693 664.09 323.813 664.623 324.8C665.156 325.76 665.89 326.52 666.823 327.08C667.756 327.64 668.823 327.92 670.023 327.92ZM691.639 331.4C690.093 331.4 688.693 331.053 687.439 330.36C686.213 329.64 685.253 328.653 684.559 327.4C683.866 326.147 683.519 324.693 683.519 323.04V312H687.119V322.88C687.119 323.92 687.293 324.827 687.639 325.6C688.013 326.347 688.546 326.92 689.239 327.32C689.933 327.72 690.746 327.92 691.679 327.92C693.093 327.92 694.199 327.48 694.999 326.6C695.799 325.693 696.199 324.453 696.199 322.88V312H699.799V323.04C699.799 324.693 699.453 326.147 698.759 327.4C698.066 328.653 697.106 329.64 695.879 330.36C694.679 331.053 693.266 331.4 691.639 331.4ZM704.624 331V312H708.224V331H704.624ZM708.224 320.16L706.864 319.56C706.864 317.133 707.424 315.2 708.544 313.76C709.664 312.32 711.278 311.6 713.384 311.6C714.344 311.6 715.211 311.773 715.984 312.12C716.758 312.44 717.478 312.987 718.144 313.76L715.784 316.2C715.384 315.773 714.944 315.467 714.464 315.28C713.984 315.093 713.424 315 712.784 315C711.451 315 710.358 315.427 709.504 316.28C708.651 317.133 708.224 318.427 708.224 320.16ZM743.143 331V319.92C743.143 318.48 742.689 317.293 741.783 316.36C740.876 315.427 739.703 314.96 738.263 314.96C737.303 314.96 736.449 315.173 735.703 315.6C734.956 316.027 734.369 316.613 733.943 317.36C733.516 318.107 733.303 318.96 733.303 319.92L731.823 319.08C731.823 317.64 732.143 316.36 732.783 315.24C733.423 314.12 734.316 313.24 735.463 312.6C736.609 311.933 737.903 311.6 739.343 311.6C740.783 311.6 742.049 311.96 743.143 312.68C744.263 313.4 745.143 314.347 745.783 315.52C746.423 316.667 746.743 317.893 746.743 319.2V331H743.143ZM729.702 331V312H733.303V331H729.702ZM760.417 331.4C758.523 331.4 756.817 330.973 755.297 330.12C753.777 329.24 752.577 328.053 751.697 326.56C750.817 325.067 750.377 323.373 750.377 321.48C750.377 319.613 750.803 317.933 751.657 316.44C752.537 314.947 753.71 313.773 755.177 312.92C756.67 312.04 758.337 311.6 760.177 311.6C761.937 311.6 763.483 312 764.817 312.8C766.177 313.6 767.23 314.707 767.977 316.12C768.75 317.533 769.137 319.133 769.137 320.92C769.137 321.187 769.123 321.48 769.097 321.8C769.07 322.093 769.017 322.44 768.937 322.84H752.897V319.84H767.017L765.697 321C765.697 319.72 765.47 318.64 765.017 317.76C764.563 316.853 763.923 316.16 763.097 315.68C762.27 315.173 761.27 314.92 760.097 314.92C758.87 314.92 757.79 315.187 756.857 315.72C755.923 316.253 755.203 317 754.697 317.96C754.19 318.92 753.937 320.053 753.937 321.36C753.937 322.693 754.203 323.867 754.737 324.88C755.27 325.867 756.03 326.64 757.017 327.2C758.003 327.733 759.137 328 760.417 328C761.483 328 762.457 327.813 763.337 327.44C764.243 327.067 765.017 326.507 765.657 325.76L767.977 328.12C767.07 329.187 765.95 330 764.617 330.56C763.31 331.12 761.91 331.4 760.417 331.4ZM778.268 331L770.748 312H774.508L779.948 326.8H778.748L784.148 312H786.228L791.628 326.8H790.428L795.868 312H799.628L792.148 331H790.028L784.548 316.64H785.868L780.348 331H778.268ZM813.868 331V309.16C813.868 307.747 814.174 306.52 814.788 305.48C815.401 304.413 816.241 303.573 817.308 302.96C818.401 302.347 819.668 302.04 821.108 302.04C822.201 302.04 823.148 302.227 823.948 302.6C824.748 302.973 825.481 303.52 826.148 304.24L823.788 306.56C823.441 306.187 823.054 305.907 822.628 305.72C822.201 305.507 821.681 305.4 821.068 305.4C819.921 305.4 819.028 305.733 818.388 306.4C817.774 307.067 817.468 307.987 817.468 309.16V331H813.868ZM809.188 315.28V312H823.508V315.28H809.188ZM834.111 331.4C832.377 331.4 830.804 330.973 829.391 330.12C827.977 329.24 826.857 328.053 826.031 326.56C825.231 325.067 824.831 323.387 824.831 321.52C824.831 319.653 825.231 317.973 826.031 316.48C826.857 314.987 827.964 313.8 829.351 312.92C830.764 312.04 832.351 311.6 834.111 311.6C835.551 311.6 836.831 311.907 837.951 312.52C839.097 313.107 840.017 313.933 840.711 315C841.404 316.04 841.791 317.253 841.871 318.64V324.36C841.791 325.72 841.404 326.933 840.711 328C840.044 329.067 839.137 329.907 837.991 330.52C836.871 331.107 835.577 331.4 834.111 331.4ZM834.711 328C836.497 328 837.937 327.4 839.031 326.2C840.124 324.973 840.671 323.413 840.671 321.52C840.671 320.213 840.417 319.08 839.911 318.12C839.431 317.133 838.737 316.373 837.831 315.84C836.924 315.28 835.871 315 834.671 315C833.471 315 832.404 315.28 831.471 315.84C830.564 316.4 829.844 317.173 829.311 318.16C828.804 319.12 828.551 320.227 828.551 321.48C828.551 322.76 828.804 323.893 829.311 324.88C829.844 325.84 830.577 326.6 831.511 327.16C832.444 327.72 833.511 328 834.711 328ZM840.431 331V325.88L841.111 321.24L840.431 316.64V312H844.071V331H840.431ZM855.832 331L847.112 312H851.112L858.112 328.04H855.792L862.832 312H866.672L857.952 331H855.832ZM877.679 331.4C875.813 331.4 874.133 330.96 872.639 330.08C871.146 329.2 869.959 328.013 869.079 326.52C868.199 325 867.759 323.307 867.759 321.44C867.759 319.6 868.199 317.947 869.079 316.48C869.959 314.987 871.146 313.8 872.639 312.92C874.133 312.04 875.813 311.6 877.679 311.6C879.519 311.6 881.186 312.04 882.679 312.92C884.199 313.773 885.399 314.947 886.279 316.44C887.159 317.933 887.599 319.6 887.599 321.44C887.599 323.307 887.159 325 886.279 326.52C885.399 328.013 884.199 329.2 882.679 330.08C881.186 330.96 879.519 331.4 877.679 331.4ZM877.679 327.92C878.879 327.92 879.946 327.64 880.879 327.08C881.813 326.52 882.546 325.76 883.079 324.8C883.613 323.813 883.879 322.693 883.879 321.44C883.879 320.213 883.599 319.12 883.039 318.16C882.506 317.2 881.773 316.453 880.839 315.92C879.933 315.36 878.879 315.08 877.679 315.08C876.479 315.08 875.413 315.36 874.479 315.92C873.546 316.453 872.813 317.2 872.279 318.16C871.746 319.12 871.479 320.213 871.479 321.44C871.479 322.693 871.746 323.813 872.279 324.8C872.813 325.76 873.546 326.52 874.479 327.08C875.413 327.64 876.479 327.92 877.679 327.92ZM891.656 331V312H895.256V331H891.656ZM895.256 320.16L893.896 319.56C893.896 317.133 894.456 315.2 895.576 313.76C896.696 312.32 898.309 311.6 900.416 311.6C901.376 311.6 902.242 311.773 903.016 312.12C903.789 312.44 904.509 312.987 905.176 313.76L902.816 316.2C902.416 315.773 901.976 315.467 901.496 315.28C901.016 315.093 900.456 315 899.816 315C898.482 315 897.389 315.427 896.536 316.28C895.682 317.133 895.256 318.427 895.256 320.16ZM907.75 331V312H911.35V331H907.75ZM909.55 308.2C908.884 308.2 908.337 307.987 907.91 307.56C907.484 307.107 907.27 306.547 907.27 305.88C907.27 305.24 907.484 304.707 907.91 304.28C908.337 303.827 908.884 303.6 909.55 303.6C910.217 303.6 910.764 303.827 911.19 304.28C911.617 304.707 911.83 305.24 911.83 305.88C911.83 306.547 911.617 307.107 911.19 307.56C910.764 307.987 910.217 308.2 909.55 308.2ZM919.576 331V304.04H923.176V331H919.576ZM914.896 315.28V312H927.856V315.28H914.896ZM939.596 331.4C937.703 331.4 935.996 330.973 934.476 330.12C932.956 329.24 931.756 328.053 930.876 326.56C929.996 325.067 929.556 323.373 929.556 321.48C929.556 319.613 929.983 317.933 930.836 316.44C931.716 314.947 932.89 313.773 934.356 312.92C935.85 312.04 937.516 311.6 939.356 311.6C941.116 311.6 942.663 312 943.996 312.8C945.356 313.6 946.41 314.707 947.156 316.12C947.93 317.533 948.316 319.133 948.316 320.92C948.316 321.187 948.303 321.48 948.276 321.8C948.25 322.093 948.196 322.44 948.116 322.84H932.076V319.84H946.196L944.876 321C944.876 319.72 944.65 318.64 944.196 317.76C943.743 316.853 943.103 316.16 942.276 315.68C941.45 315.173 940.45 314.92 939.276 314.92C938.05 314.92 936.97 315.187 936.036 315.72C935.103 316.253 934.383 317 933.876 317.96C933.37 318.92 933.116 320.053 933.116 321.36C933.116 322.693 933.383 323.867 933.916 324.88C934.45 325.867 935.21 326.64 936.196 327.2C937.183 327.733 938.316 328 939.596 328C940.663 328 941.636 327.813 942.516 327.44C943.423 327.067 944.196 326.507 944.836 325.76L947.156 328.12C946.25 329.187 945.13 330 943.796 330.56C942.49 331.12 941.09 331.4 939.596 331.4ZM961.202 331V303.24H963.842L975.602 322.56H973.802L985.562 303.24H988.202V331H984.442V309.84L985.322 310.08L976.042 325.32H973.402L964.122 310.08L964.962 309.84V331H961.202ZM994.157 331V312H997.757V331H994.157ZM995.957 308.2C995.29 308.2 994.743 307.987 994.317 307.56C993.89 307.107 993.677 306.547 993.677 305.88C993.677 305.24 993.89 304.707 994.317 304.28C994.743 303.827 995.29 303.6 995.957 303.6C996.623 303.6 997.17 303.827 997.597 304.28C998.023 304.707 998.237 305.24 998.237 305.88C998.237 306.547 998.023 307.107 997.597 307.56C997.17 307.987 996.623 308.2 995.957 308.2ZM1016.5 331V319.92C1016.5 318.48 1016.05 317.293 1015.14 316.36C1014.24 315.427 1013.06 314.96 1011.62 314.96C1010.66 314.96 1009.81 315.173 1009.06 315.6C1008.32 316.027 1007.73 316.613 1007.3 317.36C1006.88 318.107 1006.66 318.96 1006.66 319.92L1005.18 319.08C1005.18 317.64 1005.5 316.36 1006.14 315.24C1006.78 314.12 1007.68 313.24 1008.82 312.6C1009.97 311.933 1011.26 311.6 1012.7 311.6C1014.14 311.6 1015.41 311.96 1016.5 312.68C1017.62 313.4 1018.5 314.347 1019.14 315.52C1019.78 316.667 1020.1 317.893 1020.1 319.2V331H1016.5ZM1003.06 331V312H1006.66V331H1003.06ZM1033.78 331.4C1031.88 331.4 1030.18 330.973 1028.66 330.12C1027.14 329.24 1025.94 328.053 1025.06 326.56C1024.18 325.067 1023.74 323.373 1023.74 321.48C1023.74 319.613 1024.16 317.933 1025.02 316.44C1025.9 314.947 1027.07 313.773 1028.54 312.92C1030.03 312.04 1031.7 311.6 1033.54 311.6C1035.3 311.6 1036.84 312 1038.18 312.8C1039.54 313.6 1040.59 314.707 1041.34 316.12C1042.11 317.533 1042.5 319.133 1042.5 320.92C1042.5 321.187 1042.48 321.48 1042.46 321.8C1042.43 322.093 1042.38 322.44 1042.3 322.84H1026.26V319.84H1040.38L1039.06 321C1039.06 319.72 1038.83 318.64 1038.38 317.76C1037.92 316.853 1037.28 316.16 1036.46 315.68C1035.63 315.173 1034.63 314.92 1033.46 314.92C1032.23 314.92 1031.15 315.187 1030.22 315.72C1029.28 316.253 1028.56 317 1028.06 317.96C1027.55 318.92 1027.3 320.053 1027.3 321.36C1027.3 322.693 1027.56 323.867 1028.1 324.88C1028.63 325.867 1029.39 326.64 1030.38 327.2C1031.36 327.733 1032.5 328 1033.78 328C1034.84 328 1035.82 327.813 1036.7 327.44C1037.6 327.067 1038.38 326.507 1039.02 325.76L1041.34 328.12C1040.43 329.187 1039.31 330 1037.98 330.56C1036.67 331.12 1035.27 331.4 1033.78 331.4ZM1055.1 331.4C1053.23 331.4 1051.54 330.96 1050.02 330.08C1048.53 329.2 1047.34 328.013 1046.46 326.52C1045.61 325 1045.18 323.32 1045.18 321.48C1045.18 319.613 1045.61 317.933 1046.46 316.44C1047.34 314.947 1048.53 313.773 1050.02 312.92C1051.54 312.04 1053.23 311.6 1055.1 311.6C1056.57 311.6 1057.93 311.88 1059.18 312.44C1060.43 312.973 1061.51 313.76 1062.42 314.8L1060.02 317.2C1059.43 316.507 1058.71 315.987 1057.86 315.64C1057.03 315.267 1056.11 315.08 1055.1 315.08C1053.9 315.08 1052.83 315.36 1051.9 315.92C1050.97 316.453 1050.23 317.2 1049.7 318.16C1049.17 319.12 1048.9 320.227 1048.9 321.48C1048.9 322.733 1049.17 323.84 1049.7 324.8C1050.23 325.76 1050.97 326.52 1051.9 327.08C1052.83 327.64 1053.9 327.92 1055.1 327.92C1056.11 327.92 1057.03 327.747 1057.86 327.4C1058.71 327.027 1059.45 326.493 1060.06 325.8L1062.42 328.2C1061.54 329.213 1060.46 330 1059.18 330.56C1057.93 331.12 1056.57 331.4 1055.1 331.4ZM1065.99 331V312H1069.59V331H1065.99ZM1069.59 320.16L1068.23 319.56C1068.23 317.133 1068.79 315.2 1069.91 313.76C1071.03 312.32 1072.64 311.6 1074.75 311.6C1075.71 311.6 1076.58 311.773 1077.35 312.12C1078.12 312.44 1078.84 312.987 1079.51 313.76L1077.15 316.2C1076.75 315.773 1076.31 315.467 1075.83 315.28C1075.35 315.093 1074.79 315 1074.15 315C1072.82 315 1071.72 315.427 1070.87 316.28C1070.02 317.133 1069.59 318.427 1069.59 320.16ZM1089.5 331.4C1087.77 331.4 1086.19 330.973 1084.78 330.12C1083.37 329.24 1082.25 328.053 1081.42 326.56C1080.62 325.067 1080.22 323.387 1080.22 321.52C1080.22 319.653 1080.62 317.973 1081.42 316.48C1082.25 314.987 1083.35 313.8 1084.74 312.92C1086.15 312.04 1087.74 311.6 1089.5 311.6C1090.94 311.6 1092.22 311.907 1093.34 312.52C1094.49 313.107 1095.41 313.933 1096.1 315C1096.79 316.04 1097.18 317.253 1097.26 318.64V324.36C1097.18 325.72 1096.79 326.933 1096.1 328C1095.43 329.067 1094.53 329.907 1093.38 330.52C1092.26 331.107 1090.97 331.4 1089.5 331.4ZM1090.1 328C1091.89 328 1093.33 327.4 1094.42 326.2C1095.51 324.973 1096.06 323.413 1096.06 321.52C1096.06 320.213 1095.81 319.08 1095.3 318.12C1094.82 317.133 1094.13 316.373 1093.22 315.84C1092.31 315.28 1091.26 315 1090.06 315C1088.86 315 1087.79 315.28 1086.86 315.84C1085.95 316.4 1085.23 317.173 1084.7 318.16C1084.19 319.12 1083.94 320.227 1083.94 321.48C1083.94 322.76 1084.19 323.893 1084.7 324.88C1085.23 325.84 1085.97 326.6 1086.9 327.16C1087.83 327.72 1088.9 328 1090.1 328ZM1095.82 331V325.88L1096.5 321.24L1095.82 316.64V312H1099.46V331H1095.82ZM1107.34 331V309.16C1107.34 307.747 1107.65 306.52 1108.26 305.48C1108.88 304.413 1109.72 303.573 1110.78 302.96C1111.88 302.347 1113.14 302.04 1114.58 302.04C1115.68 302.04 1116.62 302.227 1117.42 302.6C1118.22 302.973 1118.96 303.52 1119.62 304.24L1117.26 306.56C1116.92 306.187 1116.53 305.907 1116.1 305.72C1115.68 305.507 1115.16 305.4 1114.54 305.4C1113.4 305.4 1112.5 305.733 1111.86 306.4C1111.25 307.067 1110.94 307.987 1110.94 309.16V331H1107.34ZM1102.66 315.28V312H1116.98V315.28H1102.66ZM1122.39 331V304.04H1125.99V331H1122.39ZM1117.71 315.28V312H1130.67V315.28H1117.71ZM1142.51 331V312H1146.12V331H1142.51ZM1155.36 331V319.52C1155.36 318.107 1154.92 317 1154.04 316.2C1153.18 315.373 1152.1 314.96 1150.8 314.96C1149.92 314.96 1149.13 315.147 1148.44 315.52C1147.74 315.893 1147.18 316.413 1146.76 317.08C1146.33 317.747 1146.12 318.547 1146.12 319.48L1144.64 318.76C1144.64 317.32 1144.94 316.067 1145.56 315C1146.2 313.933 1147.06 313.107 1148.16 312.52C1149.25 311.907 1150.48 311.6 1151.84 311.6C1153.17 311.6 1154.37 311.893 1155.44 312.48C1156.53 313.067 1157.38 313.893 1158 314.96C1158.64 316.027 1158.96 317.293 1158.96 318.76V331H1155.36ZM1168.2 331V319.52C1168.2 318.107 1167.76 317 1166.88 316.2C1166.02 315.373 1164.96 314.96 1163.68 314.96C1162.8 314.96 1162 315.147 1161.28 315.52C1160.58 315.893 1160.02 316.413 1159.6 317.08C1159.17 317.747 1158.96 318.547 1158.96 319.48L1156.92 318.76C1157 317.293 1157.38 316.04 1158.08 315C1158.8 313.933 1159.72 313.107 1160.84 312.52C1161.96 311.907 1163.18 311.6 1164.52 311.6C1165.9 311.6 1167.14 311.893 1168.24 312.48C1169.33 313.067 1170.2 313.893 1170.84 314.96C1171.5 316.027 1171.84 317.307 1171.84 318.8V331H1168.2ZM1185.41 331.4C1183.55 331.4 1181.87 330.96 1180.37 330.08C1178.88 329.2 1177.69 328.013 1176.81 326.52C1175.93 325 1175.49 323.307 1175.49 321.44C1175.49 319.6 1175.93 317.947 1176.81 316.48C1177.69 314.987 1178.88 313.8 1180.37 312.92C1181.87 312.04 1183.55 311.6 1185.41 311.6C1187.25 311.6 1188.92 312.04 1190.41 312.92C1191.93 313.773 1193.13 314.947 1194.01 316.44C1194.89 317.933 1195.33 319.6 1195.33 321.44C1195.33 323.307 1194.89 325 1194.01 326.52C1193.13 328.013 1191.93 329.2 1190.41 330.08C1188.92 330.96 1187.25 331.4 1185.41 331.4ZM1185.41 327.92C1186.61 327.92 1187.68 327.64 1188.61 327.08C1189.55 326.52 1190.28 325.76 1190.81 324.8C1191.35 323.813 1191.61 322.693 1191.61 321.44C1191.61 320.213 1191.33 319.12 1190.77 318.16C1190.24 317.2 1189.51 316.453 1188.57 315.92C1187.67 315.36 1186.61 315.08 1185.41 315.08C1184.21 315.08 1183.15 315.36 1182.21 315.92C1181.28 316.453 1180.55 317.2 1180.01 318.16C1179.48 319.12 1179.21 320.213 1179.21 321.44C1179.21 322.693 1179.48 323.813 1180.01 324.8C1180.55 325.76 1181.28 326.52 1182.21 327.08C1183.15 327.64 1184.21 327.92 1185.41 327.92ZM1207.43 331.4C1205.67 331.4 1204.1 330.973 1202.71 330.12C1201.32 329.24 1200.22 328.053 1199.39 326.56C1198.59 325.067 1198.19 323.387 1198.19 321.52C1198.19 319.653 1198.59 317.973 1199.39 316.48C1200.22 314.987 1201.32 313.8 1202.71 312.92C1204.1 312.04 1205.67 311.6 1207.43 311.6C1208.84 311.6 1210.12 311.907 1211.27 312.52C1212.42 313.107 1213.34 313.933 1214.03 315C1214.75 316.04 1215.15 317.253 1215.23 318.64V324.36C1215.15 325.72 1214.76 326.933 1214.07 328C1213.38 329.067 1212.46 329.907 1211.31 330.52C1210.16 331.107 1208.87 331.4 1207.43 331.4ZM1208.03 328C1209.23 328 1210.27 327.72 1211.15 327.16C1212.06 326.6 1212.76 325.84 1213.27 324.88C1213.78 323.893 1214.03 322.773 1214.03 321.52C1214.03 320.213 1213.76 319.08 1213.23 318.12C1212.72 317.16 1212.02 316.4 1211.11 315.84C1210.23 315.28 1209.19 315 1207.99 315C1206.79 315 1205.74 315.28 1204.83 315.84C1203.92 316.4 1203.2 317.173 1202.67 318.16C1202.16 319.12 1201.91 320.227 1201.91 321.48C1201.91 322.76 1202.16 323.893 1202.67 324.88C1203.2 325.84 1203.92 326.6 1204.83 327.16C1205.76 327.72 1206.83 328 1208.03 328ZM1217.43 331H1213.79V325.88L1214.47 321.24L1213.79 316.64V302.44H1217.43V331ZM1230.99 331V302.44H1234.59V331H1230.99ZM1248.54 331.4C1246.67 331.4 1244.99 330.96 1243.5 330.08C1242.01 329.2 1240.82 328.013 1239.94 326.52C1239.06 325 1238.62 323.307 1238.62 321.44C1238.62 319.6 1239.06 317.947 1239.94 316.48C1240.82 314.987 1242.01 313.8 1243.5 312.92C1244.99 312.04 1246.67 311.6 1248.54 311.6C1250.38 311.6 1252.05 312.04 1253.54 312.92C1255.06 313.773 1256.26 314.947 1257.14 316.44C1258.02 317.933 1258.46 319.6 1258.46 321.44C1258.46 323.307 1258.02 325 1257.14 326.52C1256.26 328.013 1255.06 329.2 1253.54 330.08C1252.05 330.96 1250.38 331.4 1248.54 331.4ZM1248.54 327.92C1249.74 327.92 1250.81 327.64 1251.74 327.08C1252.67 326.52 1253.41 325.76 1253.94 324.8C1254.47 323.813 1254.74 322.693 1254.74 321.44C1254.74 320.213 1254.46 319.12 1253.9 318.16C1253.37 317.2 1252.63 316.453 1251.7 315.92C1250.79 315.36 1249.74 315.08 1248.54 315.08C1247.34 315.08 1246.27 315.36 1245.34 315.92C1244.41 316.453 1243.67 317.2 1243.14 318.16C1242.61 319.12 1242.34 320.213 1242.34 321.44C1242.34 322.693 1242.61 323.813 1243.14 324.8C1243.67 325.76 1244.41 326.52 1245.34 327.08C1246.27 327.64 1247.34 327.92 1248.54 327.92ZM1270.6 331.4C1268.86 331.4 1267.29 330.973 1265.88 330.12C1264.46 329.24 1263.34 328.053 1262.51 326.56C1261.72 325.067 1261.32 323.387 1261.32 321.52C1261.32 319.653 1261.72 317.973 1262.51 316.48C1263.34 314.987 1264.45 313.8 1265.84 312.92C1267.25 312.04 1268.84 311.6 1270.6 311.6C1272.04 311.6 1273.32 311.907 1274.44 312.52C1275.58 313.107 1276.5 313.933 1277.2 315C1277.89 316.04 1278.28 317.253 1278.36 318.64V324.36C1278.28 325.72 1277.89 326.933 1277.2 328C1276.53 329.067 1275.62 329.907 1274.48 330.52C1273.36 331.107 1272.06 331.4 1270.6 331.4ZM1271.2 328C1272.98 328 1274.42 327.4 1275.52 326.2C1276.61 324.973 1277.16 323.413 1277.16 321.52C1277.16 320.213 1276.9 319.08 1276.4 318.12C1275.92 317.133 1275.22 316.373 1274.32 315.84C1273.41 315.28 1272.36 315 1271.16 315C1269.96 315 1268.89 315.28 1267.96 315.84C1267.05 316.4 1266.33 317.173 1265.8 318.16C1265.29 319.12 1265.04 320.227 1265.04 321.48C1265.04 322.76 1265.29 323.893 1265.8 324.88C1266.33 325.84 1267.06 326.6 1268 327.16C1268.93 327.72 1270 328 1271.2 328ZM1276.92 331V325.88L1277.6 321.24L1276.92 316.64V312H1280.56V331H1276.92ZM1293.84 331.4C1292.08 331.4 1290.5 330.973 1289.12 330.12C1287.73 329.24 1286.62 328.053 1285.8 326.56C1285 325.067 1284.6 323.387 1284.6 321.52C1284.6 319.653 1285 317.973 1285.8 316.48C1286.62 314.987 1287.73 313.8 1289.12 312.92C1290.5 312.04 1292.08 311.6 1293.84 311.6C1295.25 311.6 1296.53 311.907 1297.68 312.52C1298.82 313.107 1299.74 313.933 1300.44 315C1301.16 316.04 1301.56 317.253 1301.64 318.64V324.36C1301.56 325.72 1301.17 326.933 1300.48 328C1299.78 329.067 1298.86 329.907 1297.72 330.52C1296.57 331.107 1295.28 331.4 1293.84 331.4ZM1294.44 328C1295.64 328 1296.68 327.72 1297.56 327.16C1298.46 326.6 1299.17 325.84 1299.68 324.88C1300.18 323.893 1300.44 322.773 1300.44 321.52C1300.44 320.213 1300.17 319.08 1299.64 318.12C1299.13 317.16 1298.42 316.4 1297.52 315.84C1296.64 315.28 1295.6 315 1294.4 315C1293.2 315 1292.14 315.28 1291.24 315.84C1290.33 316.4 1289.61 317.173 1289.08 318.16C1288.57 319.12 1288.32 320.227 1288.32 321.48C1288.32 322.76 1288.57 323.893 1289.08 324.88C1289.61 325.84 1290.33 326.6 1291.24 327.16C1292.17 327.72 1293.24 328 1294.44 328ZM1303.84 331H1300.2V325.88L1300.88 321.24L1300.2 316.64V302.44H1303.84V331ZM1317.88 331.4C1315.98 331.4 1314.28 330.973 1312.76 330.12C1311.24 329.24 1310.04 328.053 1309.16 326.56C1308.28 325.067 1307.84 323.373 1307.84 321.48C1307.84 319.613 1308.26 317.933 1309.12 316.44C1310 314.947 1311.17 313.773 1312.64 312.92C1314.13 312.04 1315.8 311.6 1317.64 311.6C1319.4 311.6 1320.94 312 1322.28 312.8C1323.64 313.6 1324.69 314.707 1325.44 316.12C1326.21 317.533 1326.6 319.133 1326.6 320.92C1326.6 321.187 1326.58 321.48 1326.56 321.8C1326.53 322.093 1326.48 322.44 1326.4 322.84H1310.36V319.84H1324.48L1323.16 321C1323.16 319.72 1322.93 318.64 1322.48 317.76C1322.02 316.853 1321.38 316.16 1320.56 315.68C1319.73 315.173 1318.73 314.92 1317.56 314.92C1316.33 314.92 1315.25 315.187 1314.32 315.72C1313.38 316.253 1312.66 317 1312.16 317.96C1311.65 318.92 1311.4 320.053 1311.4 321.36C1311.4 322.693 1311.66 323.867 1312.2 324.88C1312.73 325.867 1313.49 326.64 1314.48 327.2C1315.46 327.733 1316.6 328 1317.88 328C1318.94 328 1319.92 327.813 1320.8 327.44C1321.7 327.067 1322.48 326.507 1323.12 325.76L1325.44 328.12C1324.53 329.187 1323.41 330 1322.08 330.56C1320.77 331.12 1319.37 331.4 1317.88 331.4ZM1330.52 331V312H1334.12V331H1330.52ZM1334.12 320.16L1332.76 319.56C1332.76 317.133 1333.32 315.2 1334.44 313.76C1335.56 312.32 1337.18 311.6 1339.28 311.6C1340.24 311.6 1341.11 311.773 1341.88 312.12C1342.66 312.44 1343.38 312.987 1344.04 313.76L1341.68 316.2C1341.28 315.773 1340.84 315.467 1340.36 315.28C1339.88 315.093 1339.32 315 1338.68 315C1337.35 315 1336.26 315.427 1335.4 316.28C1334.55 317.133 1334.12 318.427 1334.12 320.16Z" fill="#1C1B1B" fill-opacity="0.8"/>
</svg>
