<svg width="1500" height="500" viewBox="0 0 1500 500" fill="none" xmlns="http://www.w3.org/2000/svg">
<g clip-path="url(#clip0_2_71)">
<path d="M1500 0H0V500H1500V0Z" fill="#111010"/>
<path d="M540.92 338.68L530 322.2H534.36L543.16 335.68H541.2L550.04 322.2H554.32L543.32 338.68H540.92ZM540.28 349.96V336.2H544.04V349.96H540.28ZM560.863 350.36C558.996 350.36 557.316 349.92 555.823 349.04C554.33 348.16 553.143 346.973 552.263 345.48C551.383 343.96 550.943 342.267 550.943 340.4C550.943 338.56 551.383 336.907 552.263 335.44C553.143 333.947 554.33 332.76 555.823 331.88C557.316 331 558.996 330.56 560.863 330.56C562.703 330.56 564.37 331 565.863 331.88C567.383 332.733 568.583 333.907 569.463 335.4C570.343 336.893 570.783 338.56 570.783 340.4C570.783 342.267 570.343 343.96 569.463 345.48C568.583 346.973 567.383 348.16 565.863 349.04C564.37 349.92 562.703 350.36 560.863 350.36ZM560.863 346.88C562.063 346.88 563.13 346.6 564.063 346.04C564.996 345.48 565.73 344.72 566.263 343.76C566.796 342.773 567.063 341.653 567.063 340.4C567.063 339.173 566.783 338.08 566.223 337.12C565.69 336.16 564.956 335.413 564.023 334.88C563.116 334.32 562.063 334.04 560.863 334.04C559.663 334.04 558.596 334.32 557.663 334.88C556.73 335.413 555.996 336.16 555.463 337.12C554.93 338.08 554.663 339.173 554.663 340.4C554.663 341.653 554.93 342.773 555.463 343.76C555.996 344.72 556.73 345.48 557.663 346.04C558.596 346.6 559.663 346.88 560.863 346.88ZM582.479 350.36C580.933 350.36 579.533 350.013 578.279 349.32C577.053 348.6 576.093 347.613 575.399 346.36C574.706 345.107 574.359 343.653 574.359 342V330.96H577.959V341.84C577.959 342.88 578.133 343.787 578.479 344.56C578.853 345.307 579.386 345.88 580.079 346.28C580.773 346.68 581.586 346.88 582.519 346.88C583.933 346.88 585.039 346.44 585.839 345.56C586.639 344.653 587.039 343.413 587.039 341.84V330.96H590.639V342C590.639 343.653 590.293 345.107 589.599 346.36C588.906 347.613 587.946 348.6 586.719 349.32C585.519 350.013 584.106 350.36 582.479 350.36ZM595.464 349.96V330.96H599.064V349.96H595.464ZM599.064 339.12L597.704 338.52C597.704 336.093 598.264 334.16 599.384 332.72C600.504 331.28 602.118 330.56 604.224 330.56C605.184 330.56 606.051 330.733 606.824 331.08C607.598 331.4 608.318 331.947 608.984 332.72L606.624 335.16C606.224 334.733 605.784 334.427 605.304 334.24C604.824 334.053 604.264 333.96 603.624 333.96C602.291 333.96 601.198 334.387 600.344 335.24C599.491 336.093 599.064 337.387 599.064 339.12ZM633.983 349.96V338.88C633.983 337.44 633.529 336.253 632.623 335.32C631.716 334.387 630.543 333.92 629.103 333.92C628.143 333.92 627.289 334.133 626.543 334.56C625.796 334.987 625.209 335.573 624.783 336.32C624.356 337.067 624.143 337.92 624.143 338.88L622.663 338.04C622.663 336.6 622.983 335.32 623.623 334.2C624.263 333.08 625.156 332.2 626.303 331.56C627.449 330.893 628.743 330.56 630.183 330.56C631.623 330.56 632.889 330.92 633.983 331.64C635.103 332.36 635.983 333.307 636.623 334.48C637.263 335.627 637.583 336.853 637.583 338.16V349.96H633.983ZM620.542 349.96V330.96H624.143V349.96H620.542ZM651.257 350.36C649.363 350.36 647.657 349.933 646.137 349.08C644.617 348.2 643.417 347.013 642.537 345.52C641.657 344.027 641.217 342.333 641.217 340.44C641.217 338.573 641.643 336.893 642.497 335.4C643.377 333.907 644.55 332.733 646.017 331.88C647.51 331 649.177 330.56 651.017 330.56C652.777 330.56 654.323 330.96 655.657 331.76C657.017 332.56 658.07 333.667 658.817 335.08C659.59 336.493 659.977 338.093 659.977 339.88C659.977 340.147 659.963 340.44 659.937 340.76C659.91 341.053 659.857 341.4 659.777 341.8H643.737V338.8H657.857L656.537 339.96C656.537 338.68 656.31 337.6 655.857 336.72C655.403 335.813 654.763 335.12 653.937 334.64C653.11 334.133 652.11 333.88 650.937 333.88C649.71 333.88 648.63 334.147 647.697 334.68C646.763 335.213 646.043 335.96 645.537 336.92C645.03 337.88 644.777 339.013 644.777 340.32C644.777 341.653 645.043 342.827 645.577 343.84C646.11 344.827 646.87 345.6 647.857 346.16C648.843 346.693 649.977 346.96 651.257 346.96C652.323 346.96 653.297 346.773 654.177 346.4C655.083 346.027 655.857 345.467 656.497 344.72L658.817 347.08C657.91 348.147 656.79 348.96 655.457 349.52C654.15 350.08 652.75 350.36 651.257 350.36ZM669.108 349.96L661.588 330.96H665.348L670.788 345.76H669.588L674.988 330.96H677.068L682.468 345.76H681.268L686.708 330.96H690.468L682.988 349.96H680.868L675.388 335.6H676.708L671.188 349.96H669.108ZM704.708 349.96V328.12C704.708 326.707 705.014 325.48 705.628 324.44C706.241 323.373 707.081 322.533 708.148 321.92C709.241 321.307 710.508 321 711.948 321C713.041 321 713.988 321.187 714.788 321.56C715.588 321.933 716.321 322.48 716.988 323.2L714.628 325.52C714.281 325.147 713.894 324.867 713.468 324.68C713.041 324.467 712.521 324.36 711.908 324.36C710.761 324.36 709.868 324.693 709.228 325.36C708.614 326.027 708.308 326.947 708.308 328.12V349.96H704.708ZM700.028 334.24V330.96H714.348V334.24H700.028ZM724.951 350.36C723.217 350.36 721.644 349.933 720.231 349.08C718.817 348.2 717.697 347.013 716.871 345.52C716.071 344.027 715.671 342.347 715.671 340.48C715.671 338.613 716.071 336.933 716.871 335.44C717.697 333.947 718.804 332.76 720.191 331.88C721.604 331 723.191 330.56 724.951 330.56C726.391 330.56 727.671 330.867 728.791 331.48C729.937 332.067 730.857 332.893 731.551 333.96C732.244 335 732.631 336.213 732.711 337.6V343.32C732.631 344.68 732.244 345.893 731.551 346.96C730.884 348.027 729.977 348.867 728.831 349.48C727.711 350.067 726.417 350.36 724.951 350.36ZM725.551 346.96C727.337 346.96 728.777 346.36 729.871 345.16C730.964 343.933 731.511 342.373 731.511 340.48C731.511 339.173 731.257 338.04 730.751 337.08C730.271 336.093 729.577 335.333 728.671 334.8C727.764 334.24 726.711 333.96 725.511 333.96C724.311 333.96 723.244 334.24 722.311 334.8C721.404 335.36 720.684 336.133 720.151 337.12C719.644 338.08 719.391 339.187 719.391 340.44C719.391 341.72 719.644 342.853 720.151 343.84C720.684 344.8 721.417 345.56 722.351 346.12C723.284 346.68 724.351 346.96 725.551 346.96ZM731.271 349.96V344.84L731.951 340.2L731.271 335.6V330.96H734.911V349.96H731.271ZM746.672 349.96L737.952 330.96H741.952L748.952 347H746.632L753.672 330.96H757.512L748.792 349.96H746.672ZM768.519 350.36C766.653 350.36 764.973 349.92 763.479 349.04C761.986 348.16 760.799 346.973 759.919 345.48C759.039 343.96 758.599 342.267 758.599 340.4C758.599 338.56 759.039 336.907 759.919 335.44C760.799 333.947 761.986 332.76 763.479 331.88C764.973 331 766.653 330.56 768.519 330.56C770.359 330.56 772.026 331 773.519 331.88C775.039 332.733 776.239 333.907 777.119 335.4C777.999 336.893 778.439 338.56 778.439 340.4C778.439 342.267 777.999 343.96 777.119 345.48C776.239 346.973 775.039 348.16 773.519 349.04C772.026 349.92 770.359 350.36 768.519 350.36ZM768.519 346.88C769.719 346.88 770.786 346.6 771.719 346.04C772.653 345.48 773.386 344.72 773.919 343.76C774.453 342.773 774.719 341.653 774.719 340.4C774.719 339.173 774.439 338.08 773.879 337.12C773.346 336.16 772.613 335.413 771.679 334.88C770.773 334.32 769.719 334.04 768.519 334.04C767.319 334.04 766.253 334.32 765.319 334.88C764.386 335.413 763.653 336.16 763.119 337.12C762.586 338.08 762.319 339.173 762.319 340.4C762.319 341.653 762.586 342.773 763.119 343.76C763.653 344.72 764.386 345.48 765.319 346.04C766.253 346.6 767.319 346.88 768.519 346.88ZM782.496 349.96V330.96H786.096V349.96H782.496ZM786.096 339.12L784.736 338.52C784.736 336.093 785.296 334.16 786.416 332.72C787.536 331.28 789.149 330.56 791.256 330.56C792.216 330.56 793.082 330.733 793.856 331.08C794.629 331.4 795.349 331.947 796.016 332.72L793.656 335.16C793.256 334.733 792.816 334.427 792.336 334.24C791.856 334.053 791.296 333.96 790.656 333.96C789.322 333.96 788.229 334.387 787.376 335.24C786.522 336.093 786.096 337.387 786.096 339.12ZM798.59 349.96V330.96H802.19V349.96H798.59ZM800.39 327.16C799.724 327.16 799.177 326.947 798.75 326.52C798.324 326.067 798.11 325.507 798.11 324.84C798.11 324.2 798.324 323.667 798.75 323.24C799.177 322.787 799.724 322.56 800.39 322.56C801.057 322.56 801.604 322.787 802.03 323.24C802.457 323.667 802.67 324.2 802.67 324.84C802.67 325.507 802.457 326.067 802.03 326.52C801.604 326.947 801.057 327.16 800.39 327.16ZM810.416 349.96V323H814.016V349.96H810.416ZM805.736 334.24V330.96H818.696V334.24H805.736ZM830.436 350.36C828.543 350.36 826.836 349.933 825.316 349.08C823.796 348.2 822.596 347.013 821.716 345.52C820.836 344.027 820.396 342.333 820.396 340.44C820.396 338.573 820.823 336.893 821.676 335.4C822.556 333.907 823.73 332.733 825.196 331.88C826.69 331 828.356 330.56 830.196 330.56C831.956 330.56 833.503 330.96 834.836 331.76C836.196 332.56 837.25 333.667 837.996 335.08C838.77 336.493 839.156 338.093 839.156 339.88C839.156 340.147 839.143 340.44 839.116 340.76C839.09 341.053 839.036 341.4 838.956 341.8H822.916V338.8H837.036L835.716 339.96C835.716 338.68 835.49 337.6 835.036 336.72C834.583 335.813 833.943 335.12 833.116 334.64C832.29 334.133 831.29 333.88 830.116 333.88C828.89 333.88 827.81 334.147 826.876 334.68C825.943 335.213 825.223 335.96 824.716 336.92C824.21 337.88 823.956 339.013 823.956 340.32C823.956 341.653 824.223 342.827 824.756 343.84C825.29 344.827 826.05 345.6 827.036 346.16C828.023 346.693 829.156 346.96 830.436 346.96C831.503 346.96 832.476 346.773 833.356 346.4C834.263 346.027 835.036 345.467 835.676 344.72L837.996 347.08C837.09 348.147 835.97 348.96 834.636 349.52C833.33 350.08 831.93 350.36 830.436 350.36ZM852.042 349.96V322.2H854.682L866.442 341.52H864.642L876.402 322.2H879.042V349.96H875.282V328.8L876.162 329.04L866.882 344.28H864.242L854.962 329.04L855.802 328.8V349.96H852.042ZM884.997 349.96V330.96H888.597V349.96H884.997ZM886.797 327.16C886.13 327.16 885.583 326.947 885.157 326.52C884.73 326.067 884.517 325.507 884.517 324.84C884.517 324.2 884.73 323.667 885.157 323.24C885.583 322.787 886.13 322.56 886.797 322.56C887.463 322.56 888.01 322.787 888.437 323.24C888.863 323.667 889.077 324.2 889.077 324.84C889.077 325.507 888.863 326.067 888.437 326.52C888.01 326.947 887.463 327.16 886.797 327.16ZM907.34 349.96V338.88C907.34 337.44 906.89 336.253 905.98 335.32C905.08 334.387 903.9 333.92 902.46 333.92C901.5 333.92 900.65 334.133 899.9 334.56C899.16 334.987 898.57 335.573 898.14 336.32C897.72 337.067 897.5 337.92 897.5 338.88L896.02 338.04C896.02 336.6 896.34 335.32 896.98 334.2C897.62 333.08 898.52 332.2 899.66 331.56C900.81 330.893 902.1 330.56 903.54 330.56C904.98 330.56 906.25 330.92 907.34 331.64C908.46 332.36 909.34 333.307 909.98 334.48C910.62 335.627 910.94 336.853 910.94 338.16V349.96H907.34ZM893.9 349.96V330.96H897.5V349.96H893.9ZM924.62 350.36C922.72 350.36 921.02 349.933 919.5 349.08C917.98 348.2 916.78 347.013 915.9 345.52C915.02 344.027 914.58 342.333 914.58 340.44C914.58 338.573 915 336.893 915.86 335.4C916.74 333.907 917.91 332.733 919.38 331.88C920.87 331 922.54 330.56 924.38 330.56C926.14 330.56 927.68 330.96 929.02 331.76C930.38 332.56 931.43 333.667 932.18 335.08C932.95 336.493 933.34 338.093 933.34 339.88C933.34 340.147 933.32 340.44 933.3 340.76C933.27 341.053 933.22 341.4 933.14 341.8H917.1V338.8H931.22L929.9 339.96C929.9 338.68 929.67 337.6 929.22 336.72C928.76 335.813 928.12 335.12 927.3 334.64C926.47 334.133 925.47 333.88 924.3 333.88C923.07 333.88 921.99 334.147 921.06 334.68C920.12 335.213 919.4 335.96 918.9 336.92C918.39 337.88 918.14 339.013 918.14 340.32C918.14 341.653 918.4 342.827 918.94 343.84C919.47 344.827 920.23 345.6 921.22 346.16C922.2 346.693 923.34 346.96 924.62 346.96C925.68 346.96 926.66 346.773 927.54 346.4C928.44 346.027 929.22 345.467 929.86 344.72L932.18 347.08C931.27 348.147 930.15 348.96 928.82 349.52C927.51 350.08 926.11 350.36 924.62 350.36ZM945.94 350.36C944.07 350.36 942.38 349.92 940.86 349.04C939.37 348.16 938.18 346.973 937.3 345.48C936.45 343.96 936.02 342.28 936.02 340.44C936.02 338.573 936.45 336.893 937.3 335.4C938.18 333.907 939.37 332.733 940.86 331.88C942.38 331 944.07 330.56 945.94 330.56C947.41 330.56 948.77 330.84 950.02 331.4C951.27 331.933 952.35 332.72 953.26 333.76L950.86 336.16C950.27 335.467 949.55 334.947 948.7 334.6C947.87 334.227 946.95 334.04 945.94 334.04C944.74 334.04 943.67 334.32 942.74 334.88C941.81 335.413 941.07 336.16 940.54 337.12C940.01 338.08 939.74 339.187 939.74 340.44C939.74 341.693 940.01 342.8 940.54 343.76C941.07 344.72 941.81 345.48 942.74 346.04C943.67 346.6 944.74 346.88 945.94 346.88C946.95 346.88 947.87 346.707 948.7 346.36C949.55 345.987 950.29 345.453 950.9 344.76L953.26 347.16C952.38 348.173 951.3 348.96 950.02 349.52C948.77 350.08 947.41 350.36 945.94 350.36ZM956.83 349.96V330.96H960.43V349.96H956.83ZM960.43 339.12L959.07 338.52C959.07 336.093 959.63 334.16 960.75 332.72C961.87 331.28 963.48 330.56 965.59 330.56C966.55 330.56 967.42 330.733 968.19 331.08C968.96 331.4 969.68 331.947 970.35 332.72L967.99 335.16C967.59 334.733 967.15 334.427 966.67 334.24C966.19 334.053 965.63 333.96 964.99 333.96C963.66 333.96 962.56 334.387 961.71 335.24C960.86 336.093 960.43 337.387 960.43 339.12ZM980.34 350.36C978.61 350.36 977.03 349.933 975.62 349.08C974.21 348.2 973.09 347.013 972.26 345.52C971.46 344.027 971.06 342.347 971.06 340.48C971.06 338.613 971.46 336.933 972.26 335.44C973.09 333.947 974.19 332.76 975.58 331.88C976.99 331 978.58 330.56 980.34 330.56C981.78 330.56 983.06 330.867 984.18 331.48C985.33 332.067 986.25 332.893 986.94 333.96C987.63 335 988.02 336.213 988.1 337.6V343.32C988.02 344.68 987.63 345.893 986.94 346.96C986.27 348.027 985.37 348.867 984.22 349.48C983.1 350.067 981.81 350.36 980.34 350.36ZM980.94 346.96C982.73 346.96 984.17 346.36 985.26 345.16C986.35 343.933 986.9 342.373 986.9 340.48C986.9 339.173 986.65 338.04 986.14 337.08C985.66 336.093 984.97 335.333 984.06 334.8C983.15 334.24 982.1 333.96 980.9 333.96C979.7 333.96 978.63 334.24 977.7 334.8C976.79 335.36 976.07 336.133 975.54 337.12C975.03 338.08 974.78 339.187 974.78 340.44C974.78 341.72 975.03 342.853 975.54 343.84C976.07 344.8 976.81 345.56 977.74 346.12C978.67 346.68 979.74 346.96 980.94 346.96ZM986.66 349.96V344.84L987.34 340.2L986.66 335.6V330.96H990.3V349.96H986.66ZM998.18 349.96V328.12C998.18 326.707 998.49 325.48 999.1 324.44C999.72 323.373 1000.56 322.533 1001.62 321.92C1002.72 321.307 1003.98 321 1005.42 321C1006.52 321 1007.46 321.187 1008.26 321.56C1009.06 321.933 1009.8 322.48 1010.46 323.2L1008.1 325.52C1007.76 325.147 1007.37 324.867 1006.94 324.68C1006.52 324.467 1006 324.36 1005.38 324.36C1004.24 324.36 1003.34 324.693 1002.7 325.36C1002.09 326.027 1001.78 326.947 1001.78 328.12V349.96H998.18ZM993.5 334.24V330.96H1007.82V334.24H993.5ZM1013.23 349.96V323H1016.83V349.96H1013.23ZM1008.55 334.24V330.96H1021.51V334.24H1008.55ZM1033.35 349.96V330.96H1036.96V349.96H1033.35ZM1046.2 349.96V338.48C1046.2 337.067 1045.76 335.96 1044.88 335.16C1044.02 334.333 1042.94 333.92 1041.64 333.92C1040.76 333.92 1039.97 334.107 1039.28 334.48C1038.58 334.853 1038.02 335.373 1037.6 336.04C1037.17 336.707 1036.96 337.507 1036.96 338.44L1035.48 337.72C1035.48 336.28 1035.78 335.027 1036.4 333.96C1037.04 332.893 1037.9 332.067 1039 331.48C1040.09 330.867 1041.32 330.56 1042.68 330.56C1044.01 330.56 1045.21 330.853 1046.28 331.44C1047.37 332.027 1048.22 332.853 1048.84 333.92C1049.48 334.987 1049.8 336.253 1049.8 337.72V349.96H1046.2ZM1059.04 349.96V338.48C1059.04 337.067 1058.6 335.96 1057.72 335.16C1056.86 334.333 1055.8 333.92 1054.52 333.92C1053.64 333.92 1052.84 334.107 1052.12 334.48C1051.42 334.853 1050.86 335.373 1050.44 336.04C1050.01 336.707 1049.8 337.507 1049.8 338.44L1047.76 337.72C1047.84 336.253 1048.22 335 1048.92 333.96C1049.64 332.893 1050.56 332.067 1051.68 331.48C1052.8 330.867 1054.02 330.56 1055.36 330.56C1056.74 330.56 1057.98 330.853 1059.08 331.44C1060.17 332.027 1061.04 332.853 1061.68 333.92C1062.34 334.987 1062.68 336.267 1062.68 337.76V349.96H1059.04ZM1076.25 350.36C1074.39 350.36 1072.71 349.92 1071.21 349.04C1069.72 348.16 1068.53 346.973 1067.65 345.48C1066.77 343.96 1066.33 342.267 1066.33 340.4C1066.33 338.56 1066.77 336.907 1067.65 335.44C1068.53 333.947 1069.72 332.76 1071.21 331.88C1072.71 331 1074.39 330.56 1076.25 330.56C1078.09 330.56 1079.76 331 1081.25 331.88C1082.77 332.733 1083.97 333.907 1084.85 335.4C1085.73 336.893 1086.17 338.56 1086.17 340.4C1086.17 342.267 1085.73 343.96 1084.85 345.48C1083.97 346.973 1082.77 348.16 1081.25 349.04C1079.76 349.92 1078.09 350.36 1076.25 350.36ZM1076.25 346.88C1077.45 346.88 1078.52 346.6 1079.45 346.04C1080.39 345.48 1081.12 344.72 1081.65 343.76C1082.19 342.773 1082.45 341.653 1082.45 340.4C1082.45 339.173 1082.17 338.08 1081.61 337.12C1081.08 336.16 1080.35 335.413 1079.41 334.88C1078.51 334.32 1077.45 334.04 1076.25 334.04C1075.05 334.04 1073.99 334.32 1073.05 334.88C1072.12 335.413 1071.39 336.16 1070.85 337.12C1070.32 338.08 1070.05 339.173 1070.05 340.4C1070.05 341.653 1070.32 342.773 1070.85 343.76C1071.39 344.72 1072.12 345.48 1073.05 346.04C1073.99 346.6 1075.05 346.88 1076.25 346.88ZM1098.27 350.36C1096.51 350.36 1094.94 349.933 1093.55 349.08C1092.16 348.2 1091.06 347.013 1090.23 345.52C1089.43 344.027 1089.03 342.347 1089.03 340.48C1089.03 338.613 1089.43 336.933 1090.23 335.44C1091.06 333.947 1092.16 332.76 1093.55 331.88C1094.94 331 1096.51 330.56 1098.27 330.56C1099.68 330.56 1100.96 330.867 1102.11 331.48C1103.26 332.067 1104.18 332.893 1104.87 333.96C1105.59 335 1105.99 336.213 1106.07 337.6V343.32C1105.99 344.68 1105.6 345.893 1104.91 346.96C1104.22 348.027 1103.3 348.867 1102.15 349.48C1101 350.067 1099.71 350.36 1098.27 350.36ZM1098.87 346.96C1100.07 346.96 1101.11 346.68 1101.99 346.12C1102.9 345.56 1103.6 344.8 1104.11 343.84C1104.62 342.853 1104.87 341.733 1104.87 340.48C1104.87 339.173 1104.6 338.04 1104.07 337.08C1103.56 336.12 1102.86 335.36 1101.95 334.8C1101.07 334.24 1100.03 333.96 1098.83 333.96C1097.63 333.96 1096.58 334.24 1095.67 334.8C1094.76 335.36 1094.04 336.133 1093.51 337.12C1093 338.08 1092.75 339.187 1092.75 340.44C1092.75 341.72 1093 342.853 1093.51 343.84C1094.04 344.8 1094.76 345.56 1095.67 346.12C1096.6 346.68 1097.67 346.96 1098.87 346.96ZM1108.27 349.96H1104.63V344.84L1105.31 340.2L1104.63 335.6V321.4H1108.27V349.96ZM1121.83 349.96V321.4H1125.43V349.96H1121.83ZM1139.38 350.36C1137.51 350.36 1135.83 349.92 1134.34 349.04C1132.85 348.16 1131.66 346.973 1130.78 345.48C1129.9 343.96 1129.46 342.267 1129.46 340.4C1129.46 338.56 1129.9 336.907 1130.78 335.44C1131.66 333.947 1132.85 332.76 1134.34 331.88C1135.83 331 1137.51 330.56 1139.38 330.56C1141.22 330.56 1142.89 331 1144.38 331.88C1145.9 332.733 1147.1 333.907 1147.98 335.4C1148.86 336.893 1149.3 338.56 1149.3 340.4C1149.3 342.267 1148.86 343.96 1147.98 345.48C1147.1 346.973 1145.9 348.16 1144.38 349.04C1142.89 349.92 1141.22 350.36 1139.38 350.36ZM1139.38 346.88C1140.58 346.88 1141.65 346.6 1142.58 346.04C1143.51 345.48 1144.25 344.72 1144.78 343.76C1145.31 342.773 1145.58 341.653 1145.58 340.4C1145.58 339.173 1145.3 338.08 1144.74 337.12C1144.21 336.16 1143.47 335.413 1142.54 334.88C1141.63 334.32 1140.58 334.04 1139.38 334.04C1138.18 334.04 1137.11 334.32 1136.18 334.88C1135.25 335.413 1134.51 336.16 1133.98 337.12C1133.45 338.08 1133.18 339.173 1133.18 340.4C1133.18 341.653 1133.45 342.773 1133.98 343.76C1134.51 344.72 1135.25 345.48 1136.18 346.04C1137.11 346.6 1138.18 346.88 1139.38 346.88ZM1161.44 350.36C1159.7 350.36 1158.13 349.933 1156.72 349.08C1155.3 348.2 1154.18 347.013 1153.35 345.52C1152.56 344.027 1152.16 342.347 1152.16 340.48C1152.16 338.613 1152.56 336.933 1153.35 335.44C1154.18 333.947 1155.29 332.76 1156.68 331.88C1158.09 331 1159.68 330.56 1161.44 330.56C1162.88 330.56 1164.16 330.867 1165.28 331.48C1166.42 332.067 1167.34 332.893 1168.04 333.96C1168.73 335 1169.12 336.213 1169.2 337.6V343.32C1169.12 344.68 1168.73 345.893 1168.04 346.96C1167.37 348.027 1166.46 348.867 1165.32 349.48C1164.2 350.067 1162.9 350.36 1161.44 350.36ZM1162.04 346.96C1163.82 346.96 1165.26 346.36 1166.36 345.16C1167.45 343.933 1168 342.373 1168 340.48C1168 339.173 1167.74 338.04 1167.24 337.08C1166.76 336.093 1166.06 335.333 1165.16 334.8C1164.25 334.24 1163.2 333.96 1162 333.96C1160.8 333.96 1159.73 334.24 1158.8 334.8C1157.89 335.36 1157.17 336.133 1156.64 337.12C1156.13 338.08 1155.88 339.187 1155.88 340.44C1155.88 341.72 1156.13 342.853 1156.64 343.84C1157.17 344.8 1157.9 345.56 1158.84 346.12C1159.77 346.68 1160.84 346.96 1162.04 346.96ZM1167.76 349.96V344.84L1168.44 340.2L1167.76 335.6V330.96H1171.4V349.96H1167.76ZM1184.68 350.36C1182.92 350.36 1181.34 349.933 1179.96 349.08C1178.57 348.2 1177.46 347.013 1176.64 345.52C1175.84 344.027 1175.44 342.347 1175.44 340.48C1175.44 338.613 1175.84 336.933 1176.64 335.44C1177.46 333.947 1178.57 332.76 1179.96 331.88C1181.34 331 1182.92 330.56 1184.68 330.56C1186.09 330.56 1187.37 330.867 1188.52 331.48C1189.66 332.067 1190.58 332.893 1191.28 333.96C1192 335 1192.4 336.213 1192.48 337.6V343.32C1192.4 344.68 1192.01 345.893 1191.32 346.96C1190.62 348.027 1189.7 348.867 1188.56 349.48C1187.41 350.067 1186.12 350.36 1184.68 350.36ZM1185.28 346.96C1186.48 346.96 1187.52 346.68 1188.4 346.12C1189.3 345.56 1190.01 344.8 1190.52 343.84C1191.02 342.853 1191.28 341.733 1191.28 340.48C1191.28 339.173 1191.01 338.04 1190.48 337.08C1189.97 336.12 1189.26 335.36 1188.36 334.8C1187.48 334.24 1186.44 333.96 1185.24 333.96C1184.04 333.96 1182.98 334.24 1182.08 334.8C1181.17 335.36 1180.45 336.133 1179.92 337.12C1179.41 338.08 1179.16 339.187 1179.16 340.44C1179.16 341.72 1179.41 342.853 1179.92 343.84C1180.45 344.8 1181.17 345.56 1182.08 346.12C1183.01 346.68 1184.08 346.96 1185.28 346.96ZM1194.68 349.96H1191.04V344.84L1191.72 340.2L1191.04 335.6V321.4H1194.68V349.96ZM1208.72 350.36C1206.82 350.36 1205.12 349.933 1203.6 349.08C1202.08 348.2 1200.88 347.013 1200 345.52C1199.12 344.027 1198.68 342.333 1198.68 340.44C1198.68 338.573 1199.1 336.893 1199.96 335.4C1200.84 333.907 1202.01 332.733 1203.48 331.88C1204.97 331 1206.64 330.56 1208.48 330.56C1210.24 330.56 1211.78 330.96 1213.12 331.76C1214.48 332.56 1215.53 333.667 1216.28 335.08C1217.05 336.493 1217.44 338.093 1217.44 339.88C1217.44 340.147 1217.42 340.44 1217.4 340.76C1217.37 341.053 1217.32 341.4 1217.24 341.8H1201.2V338.8H1215.32L1214 339.96C1214 338.68 1213.77 337.6 1213.32 336.72C1212.86 335.813 1212.22 335.12 1211.4 334.64C1210.57 334.133 1209.57 333.88 1208.4 333.88C1207.17 333.88 1206.09 334.147 1205.16 334.68C1204.22 335.213 1203.5 335.96 1203 336.92C1202.49 337.88 1202.24 339.013 1202.24 340.32C1202.24 341.653 1202.5 342.827 1203.04 343.84C1203.57 344.827 1204.33 345.6 1205.32 346.16C1206.3 346.693 1207.44 346.96 1208.72 346.96C1209.78 346.96 1210.76 346.773 1211.64 346.4C1212.54 346.027 1213.32 345.467 1213.96 344.72L1216.28 347.08C1215.37 348.147 1214.25 348.96 1212.92 349.52C1211.61 350.08 1210.21 350.36 1208.72 350.36ZM1221.36 349.96V330.96H1224.96V349.96H1221.36ZM1224.96 339.12L1223.6 338.52C1223.6 336.093 1224.16 334.16 1225.28 332.72C1226.4 331.28 1228.02 330.56 1230.12 330.56C1231.08 330.56 1231.95 330.733 1232.72 331.08C1233.5 331.4 1234.22 331.947 1234.88 332.72L1232.52 335.16C1232.12 334.733 1231.68 334.427 1231.2 334.24C1230.72 334.053 1230.16 333.96 1229.52 333.96C1228.19 333.96 1227.1 334.387 1226.24 335.24C1225.39 336.093 1224.96 337.387 1224.96 339.12Z" fill="white" fill-opacity="0.4"/>
<path d="M519.6 282.96C512.8 282.96 506.96 281.8 502.08 279.48C497.28 277.16 492.92 273.68 489 269.04L499.8 258.24C502.28 261.52 505.16 264.08 508.44 265.92C511.72 267.68 515.72 268.56 520.44 268.56C524.68 268.56 528.04 267.72 530.52 266.04C533.08 264.36 534.36 262.04 534.36 259.08C534.36 256.52 533.64 254.44 532.2 252.84C530.76 251.24 528.84 249.88 526.44 248.76C524.12 247.64 521.52 246.64 518.64 245.76C515.84 244.8 513 243.72 510.12 242.52C507.32 241.32 504.72 239.84 502.32 238.08C500 236.24 498.12 233.92 496.68 231.12C495.24 228.24 494.52 224.64 494.52 220.32C494.52 215.2 495.76 210.84 498.24 207.24C500.72 203.64 504.12 200.88 508.44 198.96C512.76 197.04 517.64 196.08 523.08 196.08C528.84 196.08 534.04 197.16 538.68 199.32C543.32 201.48 547.12 204.28 550.08 207.72L539.28 218.52C536.8 215.8 534.24 213.8 531.6 212.52C529.04 211.24 526.12 210.6 522.84 210.6C519.08 210.6 516.12 211.32 513.96 212.76C511.8 214.2 510.72 216.28 510.72 219C510.72 221.32 511.44 223.2 512.88 224.64C514.32 226.08 516.2 227.32 518.52 228.36C520.92 229.4 523.52 230.4 526.32 231.36C529.2 232.32 532.04 233.4 534.84 234.6C537.72 235.8 540.32 237.36 542.64 239.28C545.04 241.2 546.96 243.68 548.4 246.72C549.84 249.68 550.56 253.36 550.56 257.76C550.56 265.6 547.8 271.76 542.28 276.24C536.76 280.72 529.2 282.96 519.6 282.96ZM593.92 282.96C589.76 282.96 586 282.12 582.64 280.44C579.28 278.68 576.6 276.32 574.6 273.36C572.6 270.4 571.52 267 571.36 263.16V242.64C571.52 238.8 572.6 235.4 574.6 232.44C576.68 229.4 579.36 227 582.64 225.24C586 223.48 589.76 222.6 593.92 222.6C599.28 222.6 604.08 223.92 608.32 226.56C612.56 229.2 615.88 232.8 618.28 237.36C620.76 241.92 622 247.08 622 252.84C622 258.52 620.76 263.64 618.28 268.2C615.88 272.76 612.56 276.36 608.32 279C604.08 281.64 599.28 282.96 593.92 282.96ZM591.16 268.44C594.04 268.44 596.6 267.8 598.84 266.52C601.08 265.16 602.8 263.32 604 261C605.28 258.6 605.92 255.84 605.92 252.72C605.92 249.68 605.28 247 604 244.68C602.8 242.28 601.08 240.44 598.84 239.16C596.6 237.8 594.04 237.12 591.16 237.12C588.36 237.12 585.84 237.8 583.6 239.16C581.36 240.44 579.6 242.28 578.32 244.68C577.12 247 576.52 249.68 576.52 252.72C576.52 255.84 577.12 258.6 578.32 261C579.6 263.32 581.32 265.16 583.48 266.52C585.72 267.8 588.28 268.44 591.16 268.44ZM561.76 306V223.8H577.48V239.04L574.84 253.08L577.36 267.12V306H561.76ZM632.307 281.76V223.8H648.027V281.76H632.307ZM648.027 249.72L641.907 245.64C642.627 238.52 644.707 232.92 648.147 228.84C651.587 224.68 656.547 222.6 663.027 222.6C665.827 222.6 668.347 223.08 670.587 224.04C672.827 224.92 674.867 226.4 676.707 228.48L666.867 239.76C665.987 238.8 664.907 238.08 663.627 237.6C662.427 237.12 661.027 236.88 659.427 236.88C656.067 236.88 653.307 237.96 651.147 240.12C649.067 242.2 648.027 245.4 648.027 249.72ZM706.949 282.96C701.829 282.96 697.269 281.88 693.269 279.72C689.349 277.56 686.269 274.56 684.029 270.72C681.789 266.88 680.669 262.44 680.669 257.4V223.8H696.509V257.04C696.509 259.44 696.909 261.52 697.709 263.28C698.509 264.96 699.709 266.24 701.309 267.12C702.909 268 704.789 268.44 706.949 268.44C710.229 268.44 712.789 267.44 714.629 265.44C716.469 263.44 717.389 260.64 717.389 257.04V223.8H733.109V257.4C733.109 262.52 731.989 267 729.749 270.84C727.589 274.68 724.509 277.68 720.509 279.84C716.589 281.92 712.069 282.96 706.949 282.96ZM772.988 282.96C767.068 282.96 761.748 281.64 757.028 279C752.308 276.36 748.588 272.76 745.868 268.2C743.148 263.64 741.788 258.52 741.788 252.84C741.788 247.08 743.148 241.92 745.868 237.36C748.588 232.8 752.308 229.2 757.028 226.56C761.828 223.84 767.148 222.48 772.988 222.48C777.548 222.48 781.748 223.32 785.588 225C789.428 226.68 792.748 229.08 795.548 232.2L785.468 242.4C783.948 240.72 782.108 239.44 779.948 238.56C777.868 237.68 775.548 237.24 772.988 237.24C770.108 237.24 767.508 237.92 765.188 239.28C762.948 240.56 761.148 242.36 759.788 244.68C758.508 246.92 757.868 249.6 757.868 252.72C757.868 255.76 758.508 258.48 759.788 260.88C761.148 263.2 762.948 265.04 765.188 266.4C767.508 267.68 770.108 268.32 772.988 268.32C775.628 268.32 777.988 267.88 780.068 267C782.228 266.04 784.068 264.68 785.588 262.92L795.788 273.12C792.828 276.32 789.428 278.76 785.588 280.44C781.748 282.12 777.548 282.96 772.988 282.96ZM831.121 282.96C825.041 282.96 819.641 281.68 814.921 279.12C810.201 276.48 806.441 272.88 803.641 268.32C800.921 263.76 799.561 258.56 799.561 252.72C799.561 246.96 800.881 241.84 803.521 237.36C806.241 232.8 809.921 229.2 814.561 226.56C819.201 223.84 824.361 222.48 830.041 222.48C835.641 222.48 840.561 223.76 844.801 226.32C849.121 228.8 852.481 232.24 854.881 236.64C857.361 240.96 858.601 245.88 858.601 251.4C858.601 252.44 858.521 253.52 858.361 254.64C858.281 255.68 858.081 256.88 857.761 258.24L809.041 258.36V246.6L850.441 246.48L844.081 251.4C843.921 247.96 843.281 245.08 842.161 242.76C841.121 240.44 839.561 238.68 837.481 237.48C835.481 236.2 833.001 235.56 830.041 235.56C826.921 235.56 824.201 236.28 821.881 237.72C819.561 239.08 817.761 241.04 816.481 243.6C815.281 246.08 814.681 249.04 814.681 252.48C814.681 256 815.321 259.08 816.601 261.72C817.961 264.28 819.881 266.28 822.361 267.72C824.841 269.08 827.721 269.76 831.001 269.76C833.961 269.76 836.641 269.28 839.041 268.32C841.441 267.28 843.521 265.76 845.281 263.76L854.521 273C851.721 276.28 848.281 278.76 844.201 280.44C840.201 282.12 835.841 282.96 831.121 282.96ZM893.44 281.76V197.4H909.76V281.76H893.44ZM905.44 281.76V267.24H948.4V281.76H905.44ZM984.16 282.96C978.32 282.96 973.037 281.64 968.317 279C963.677 276.28 959.957 272.64 957.157 268.08C954.437 263.44 953.077 258.28 953.077 252.6C953.077 246.92 954.437 241.84 957.157 237.36C959.877 232.8 963.597 229.2 968.317 226.56C973.037 223.84 978.28 222.48 984.04 222.48C989.96 222.48 995.24 223.84 999.88 226.56C1004.6 229.2 1008.32 232.8 1011.04 237.36C1013.76 241.84 1015.12 246.92 1015.12 252.6C1015.12 258.28 1013.76 263.44 1011.04 268.08C1008.32 272.64 1004.6 276.28 999.88 279C995.24 281.64 990 282.96 984.16 282.96ZM984.04 268.32C987 268.32 989.6 267.68 991.84 266.4C994.16 265.04 995.92 263.2 997.12 260.88C998.4 258.48 999.04 255.76 999.04 252.72C999.04 249.68 998.4 247 997.12 244.68C995.84 242.36 994.08 240.56 991.84 239.28C989.6 237.92 987 237.24 984.04 237.24C981.16 237.24 978.6 237.92 976.36 239.28C974.117 240.56 972.357 242.36 971.077 244.68C969.797 247 969.157 249.68 969.157 252.72C969.157 255.76 969.797 258.48 971.077 260.88C972.357 263.2 974.117 265.04 976.36 266.4C978.6 267.68 981.16 268.32 984.04 268.32ZM1049.48 282.96C1044.2 282.96 1039.44 281.64 1035.2 279C1030.96 276.36 1027.64 272.76 1025.24 268.2C1022.84 263.64 1021.64 258.52 1021.64 252.84C1021.64 247.08 1022.84 241.92 1025.24 237.36C1027.64 232.8 1030.96 229.2 1035.2 226.56C1039.44 223.92 1044.2 222.6 1049.48 222.6C1053.64 222.6 1057.36 223.44 1060.64 225.12C1063.92 226.8 1066.52 229.16 1068.44 232.2C1070.44 235.16 1071.52 238.52 1071.68 242.28V263.16C1071.52 267 1070.44 270.4 1068.44 273.36C1066.52 276.32 1063.92 278.68 1060.64 280.44C1057.36 282.12 1053.64 282.96 1049.48 282.96ZM1052.36 268.44C1056.76 268.44 1060.32 267 1063.04 264.12C1065.76 261.16 1067.12 257.36 1067.12 252.72C1067.12 249.68 1066.48 247 1065.2 244.68C1064 242.28 1062.28 240.44 1060.04 239.16C1057.88 237.8 1055.32 237.12 1052.36 237.12C1049.48 237.12 1046.92 237.8 1044.68 239.16C1042.52 240.44 1040.8 242.28 1039.52 244.68C1038.32 247 1037.72 249.68 1037.72 252.72C1037.72 255.84 1038.32 258.6 1039.52 261C1040.8 263.32 1042.52 265.16 1044.68 266.52C1046.92 267.8 1049.48 268.44 1052.36 268.44ZM1066.28 281.76V266.16L1068.8 252L1066.28 238.08V223.8H1081.88V281.76H1066.28ZM1120.26 282.96C1114.9 282.96 1110.1 281.64 1105.86 279C1101.62 276.36 1098.26 272.76 1095.78 268.2C1093.38 263.64 1092.18 258.52 1092.18 252.84C1092.18 247.08 1093.38 241.92 1095.78 237.36C1098.26 232.8 1101.58 229.2 1105.74 226.56C1109.98 223.92 1114.82 222.6 1120.26 222.6C1124.42 222.6 1128.14 223.44 1131.42 225.12C1134.78 226.8 1137.46 229.16 1139.46 232.2C1141.54 235.16 1142.66 238.52 1142.82 242.28V262.92C1142.66 266.68 1141.58 270.08 1139.58 273.12C1137.58 276.16 1134.9 278.56 1131.54 280.32C1128.18 282.08 1124.42 282.96 1120.26 282.96ZM1122.9 268.44C1125.86 268.44 1128.42 267.8 1130.58 266.52C1132.82 265.16 1134.54 263.32 1135.74 261C1137.02 258.6 1137.66 255.84 1137.66 252.72C1137.66 249.68 1137.02 247 1135.74 244.68C1134.54 242.28 1132.82 240.44 1130.58 239.16C1128.42 237.8 1125.9 237.12 1123.02 237.12C1120.06 237.12 1117.46 237.8 1115.22 239.16C1113.06 240.52 1111.34 242.36 1110.06 244.68C1108.86 247 1108.26 249.68 1108.26 252.72C1108.26 255.84 1108.86 258.6 1110.06 261C1111.34 263.32 1113.1 265.16 1115.34 266.52C1117.58 267.8 1120.1 268.44 1122.9 268.44ZM1152.42 281.76H1136.82V266.16L1139.34 252L1136.7 238.08V195H1152.42V281.76ZM1194.05 282.96C1187.97 282.96 1182.57 281.68 1177.85 279.12C1173.13 276.48 1169.37 272.88 1166.57 268.32C1163.85 263.76 1162.49 258.56 1162.49 252.72C1162.49 246.96 1163.81 241.84 1166.45 237.36C1169.17 232.8 1172.85 229.2 1177.49 226.56C1182.13 223.84 1187.29 222.48 1192.97 222.48C1198.57 222.48 1203.49 223.76 1207.73 226.32C1212.05 228.8 1215.41 232.24 1217.81 236.64C1220.29 240.96 1221.53 245.88 1221.53 251.4C1221.53 252.44 1221.45 253.52 1221.29 254.64C1221.21 255.68 1221.01 256.88 1220.69 258.24L1171.97 258.36V246.6L1213.37 246.48L1207.01 251.4C1206.85 247.96 1206.21 245.08 1205.09 242.76C1204.05 240.44 1202.49 238.68 1200.41 237.48C1198.41 236.2 1195.93 235.56 1192.97 235.56C1189.85 235.56 1187.13 236.28 1184.81 237.72C1182.49 239.08 1180.69 241.04 1179.41 243.6C1178.21 246.08 1177.61 249.04 1177.61 252.48C1177.61 256 1178.25 259.08 1179.53 261.72C1180.89 264.28 1182.81 266.28 1185.29 267.72C1187.77 269.08 1190.65 269.76 1193.93 269.76C1196.89 269.76 1199.57 269.28 1201.97 268.32C1204.37 267.28 1206.45 265.76 1208.21 263.76L1217.45 273C1214.65 276.28 1211.21 278.76 1207.13 280.44C1203.13 282.12 1198.77 282.96 1194.05 282.96ZM1231.25 281.76V223.8H1246.97V281.76H1231.25ZM1246.97 249.72L1240.85 245.64C1241.57 238.52 1243.65 232.92 1247.09 228.84C1250.53 224.68 1255.49 222.6 1261.97 222.6C1264.77 222.6 1267.29 223.08 1269.53 224.04C1271.77 224.92 1273.81 226.4 1275.65 228.48L1265.81 239.76C1264.93 238.8 1263.85 238.08 1262.57 237.6C1261.37 237.12 1259.97 236.88 1258.37 236.88C1255.01 236.88 1252.25 237.96 1250.09 240.12C1248.01 242.2 1246.97 245.4 1246.97 249.72Z" fill="url(#paint0_linear_2_71)"/>
<path d="M326.383 308.162C327.898 302.103 336.51 302.103 338.025 308.162L365.34 417.424C366.287 421.211 363.423 424.879 359.519 424.879H304.889C300.985 424.879 298.121 421.211 299.068 417.424L326.383 308.162Z" fill="url(#paint1_linear_2_71)"/>
<g filter="url(#filter0_i_2_71)">
<path fill-rule="evenodd" clip-rule="evenodd" d="M337.04 79.2563C334.807 74.9146 328.601 74.9146 326.368 79.2563L243.7 240.025C241.647 244.018 244.546 248.769 249.036 248.769H285.137L225.666 365.145C223.625 369.137 226.525 373.875 231.008 373.875H432.4C436.883 373.875 439.783 369.137 437.743 365.145L378.271 248.769H414.372C418.862 248.769 421.761 244.018 419.708 240.025L337.04 79.2563Z" fill="url(#paint2_linear_2_71)"/>
</g>
<g filter="url(#filter1_i_2_71)">
<path d="M326.368 79.2563C328.601 74.9146 334.808 74.9146 337.04 79.2563L419.708 240.025C421.761 244.018 418.862 248.769 414.372 248.769H249.036C244.546 248.769 241.647 244.018 243.7 240.025L326.368 79.2563Z" fill="url(#paint3_linear_2_71)"/>
</g>
</g>
<defs>
<filter id="filter0_i_2_71" x="225" y="76" width="213.408" height="299.875" filterUnits="userSpaceOnUse" color-interpolation-filters="sRGB">
<feFlood flood-opacity="0" result="BackgroundImageFix"/>
<feBlend mode="normal" in="SourceGraphic" in2="BackgroundImageFix" result="shape"/>
<feColorMatrix in="SourceAlpha" type="matrix" values="0 0 0 0 0 0 0 0 0 0 0 0 0 0 0 0 0 0 127 0" result="hardAlpha"/>
<feOffset dy="2"/>
<feGaussianBlur stdDeviation="5"/>
<feComposite in2="hardAlpha" operator="arithmetic" k2="-1" k3="1"/>
<feColorMatrix type="matrix" values="0 0 0 0 0 0 0 0 0 0 0 0 0 0 0 0 0 0 0.25 0"/>
<feBlend mode="normal" in2="shape" result="effect1_innerShadow_2_71"/>
</filter>
<filter id="filter1_i_2_71" x="243.028" y="76" width="177.352" height="174.769" filterUnits="userSpaceOnUse" color-interpolation-filters="sRGB">
<feFlood flood-opacity="0" result="BackgroundImageFix"/>
<feBlend mode="normal" in="SourceGraphic" in2="BackgroundImageFix" result="shape"/>
<feColorMatrix in="SourceAlpha" type="matrix" values="0 0 0 0 0 0 0 0 0 0 0 0 0 0 0 0 0 0 127 0" result="hardAlpha"/>
<feOffset dy="2"/>
<feGaussianBlur stdDeviation="5"/>
<feComposite in2="hardAlpha" operator="arithmetic" k2="-1" k3="1"/>
<feColorMatrix type="matrix" values="0 0 0 0 0 0 0 0 0 0 0 0 0 0 0 0 0 0 0.25 0"/>
<feBlend mode="normal" in2="shape" result="effect1_innerShadow_2_71"/>
</filter>
<linearGradient id="paint0_linear_2_71" x1="784.48" y1="188.265" x2="976.53" y2="480.909" gradientUnits="userSpaceOnUse">
<stop stop-color="#3F785F"/>
<stop offset="0.949635" stop-color="#3F785F"/>
</linearGradient>
<linearGradient id="paint1_linear_2_71" x1="332.204" y1="284.879" x2="332.204" y2="424.879" gradientUnits="userSpaceOnUse">
<stop stop-color="#211C1A"/>
<stop offset="1" stop-color="#412E27"/>
</linearGradient>
<linearGradient id="paint2_linear_2_71" x1="332.217" y1="-7.0998" x2="332.217" y2="373.755" gradientUnits="userSpaceOnUse">
<stop stop-color="#3F785F"/>
<stop offset="0.949635" stop-color="#3F785F"/>
</linearGradient>
<linearGradient id="paint3_linear_2_71" x1="332.13" y1="27.8018" x2="332.13" y2="248.699" gradientUnits="userSpaceOnUse">
<stop stop-color="#3F785F"/>
<stop offset="0.949635" stop-color="#3F785F"/>
</linearGradient>
<clipPath id="clip0_2_71">
<rect width="1500" height="500" fill="white"/>
</clipPath>
</defs>
</svg>
