<svg width="512" height="512" viewBox="0 0 512 512" fill="none" xmlns="http://www.w3.org/2000/svg">
<path d="M250.179 317.283C251.694 311.224 260.306 311.224 261.821 317.283L289.136 426.545C290.083 430.332 287.219 434 283.315 434H228.685C224.781 434 221.917 430.332 222.864 426.545L250.179 317.283Z" fill="url(#paint0_linear_23_64)"/>
<g filter="url(#filter0_d_23_64)">
<path fill-rule="evenodd" clip-rule="evenodd" d="M260.836 88.3771C258.603 84.0354 252.397 84.0354 250.164 88.3771L167.496 249.146C165.443 253.139 168.342 257.89 172.832 257.89H208.933L149.462 374.266C147.421 378.258 150.321 382.996 154.804 382.996H356.196C360.679 382.996 363.579 378.258 361.539 374.266L302.067 257.89H338.168C342.658 257.89 345.557 253.139 343.504 249.146L260.836 88.3771Z" fill="url(#paint1_linear_23_64)"/>
</g>
<g filter="url(#filter1_d_23_64)">
<path d="M250.164 88.3771C252.397 84.0354 258.603 84.0354 260.836 88.3771L343.504 249.146C345.557 253.139 342.658 257.89 338.168 257.89H172.832C168.342 257.89 165.443 253.139 167.496 249.146L250.164 88.3771Z" fill="url(#paint2_linear_23_64)"/>
</g>
<defs>
<filter id="filter0_d_23_64" x="138.796" y="77.1208" width="233.407" height="317.875" filterUnits="userSpaceOnUse" color-interpolation-filters="sRGB">
<feFlood flood-opacity="0" result="BackgroundImageFix"/>
<feColorMatrix in="SourceAlpha" type="matrix" values="0 0 0 0 0 0 0 0 0 0 0 0 0 0 0 0 0 0 127 0" result="hardAlpha"/>
<feOffset dy="2"/>
<feGaussianBlur stdDeviation="5"/>
<feComposite in2="hardAlpha" operator="out"/>
<feColorMatrix type="matrix" values="0 0 0 0 0 0 0 0 0 0 0 0 0 0 0 0 0 0 0.25 0"/>
<feBlend mode="normal" in2="BackgroundImageFix" result="effect1_dropShadow_23_64"/>
<feBlend mode="normal" in="SourceGraphic" in2="effect1_dropShadow_23_64" result="shape"/>
</filter>
<filter id="filter1_d_23_64" x="156.824" y="77.1208" width="197.352" height="192.769" filterUnits="userSpaceOnUse" color-interpolation-filters="sRGB">
<feFlood flood-opacity="0" result="BackgroundImageFix"/>
<feColorMatrix in="SourceAlpha" type="matrix" values="0 0 0 0 0 0 0 0 0 0 0 0 0 0 0 0 0 0 127 0" result="hardAlpha"/>
<feOffset dy="2"/>
<feGaussianBlur stdDeviation="5"/>
<feComposite in2="hardAlpha" operator="out"/>
<feColorMatrix type="matrix" values="0 0 0 0 0 0 0 0 0 0 0 0 0 0 0 0 0 0 0.25 0"/>
<feBlend mode="normal" in2="BackgroundImageFix" result="effect1_dropShadow_23_64"/>
<feBlend mode="normal" in="SourceGraphic" in2="effect1_dropShadow_23_64" result="shape"/>
</filter>
<linearGradient id="paint0_linear_23_64" x1="256" y1="294" x2="256" y2="434" gradientUnits="userSpaceOnUse">
<stop stop-color="#211C1A"/>
<stop offset="1" stop-color="#412E27"/>
</linearGradient>
<linearGradient id="paint1_linear_23_64" x1="256.013" y1="2.02103" x2="256.013" y2="382.876" gradientUnits="userSpaceOnUse">
<stop stop-color="#3F785F"/>
<stop offset="0.949635" stop-color="#3F785F"/>
</linearGradient>
<linearGradient id="paint2_linear_23_64" x1="255.926" y1="36.9226" x2="255.926" y2="257.82" gradientUnits="userSpaceOnUse">
<stop stop-color="#3F785F"/>
<stop offset="0.949635" stop-color="#3F785F"/>
</linearGradient>
</defs>
</svg>
